<svg xmlns="http://www.w3.org/2000/svg" width="58" height="32.862" viewBox="0 0 58 32.862">
  <g id="_360_logo" data-name="360 logo" transform="translate(0 -2)">
    <path id="Path_333" data-name="Path 333" d="M6.762,8.41a10.853,10.853,0,0,1,4.682,3.707A9.908,9.908,0,0,1,13.113,18a9.653,9.653,0,0,1-.945,4.3,9.37,9.37,0,0,1-2.555,3.367,12.056,12.056,0,0,1-3.958,2.215,15.931,15.931,0,0,1-5.11.768L.5,26.725a12.974,12.974,0,0,0,4.135-.635A10.553,10.553,0,0,0,7.959,24.3a8.558,8.558,0,0,0,2.215-2.762,7.7,7.7,0,0,0,.812-3.53,7.9,7.9,0,0,0-.679-3.279A8.311,8.311,0,0,0,8.52,12.044a7.9,7.9,0,0,0-2.644-1.876,8.168,8.168,0,0,0-3.235-.812L6.6,5.442H.766V3.3H11.843Z" transform="translate(-0.426 -1.108)" fill="#fff"/>
    <path id="Path_334" data-name="Path 334" d="M92.92,17.331a8.987,8.987,0,0,0,.635,3.323,8.311,8.311,0,0,0,1.787,2.688,8.17,8.17,0,0,0,6.056,2.467,8.486,8.486,0,0,0,3.323-.635,8.487,8.487,0,0,0,4.46-4.519c.089-.207.177-.428.251-.635a11.11,11.11,0,0,0,1.359,1.935,9.731,9.731,0,0,1-1.935,2.747,9.886,9.886,0,0,1-3.279,2.215,10.548,10.548,0,0,1-4.18.812,10.434,10.434,0,0,1-4.135-.812,11.016,11.016,0,0,1-3.279-2.26,10.62,10.62,0,0,1-2.215-3.279A10.663,10.663,0,0,1,91,17.331a14.96,14.96,0,0,1,.857-5.066,16.761,16.761,0,0,1,2.348-4.431,16.9,16.9,0,0,1,3.619-3.486A16.037,16.037,0,0,1,102.373,2l.768,1.787a12.47,12.47,0,0,0-4,1.92,13.353,13.353,0,0,0-2.673,2.644,6.125,6.125,0,0,1,1.994-.975,9.854,9.854,0,0,1,2.939-.384,10.118,10.118,0,0,1,4.091.812,10.732,10.732,0,0,1,3.323,2.215l.251.266-.118.251a10.737,10.737,0,0,0-.62,1.994,8.884,8.884,0,0,0-.96-1.137,8.156,8.156,0,0,0-2.688-1.787,8.252,8.252,0,0,0-6.558,0,8.311,8.311,0,0,0-2.688,1.787A8.942,8.942,0,0,0,93.6,14.082a7.671,7.671,0,0,0-.679,3.249" transform="translate(-77.56)" fill="#fff"/>
    <path id="Path_335" data-name="Path 335" d="M240.533,25.26h0l.281.192a6.8,6.8,0,0,0,3.811,1.3,2.73,2.73,0,0,0,.354-.015,4.506,4.506,0,0,1-1.315-3.427l.03-.207.148-.148a11.211,11.211,0,0,0,3.279-7.976,11.179,11.179,0,0,0-.871-4.387A11.786,11.786,0,0,0,243.841,7,11.384,11.384,0,0,0,231.479,4.6,11.786,11.786,0,0,0,227.89,7a11.262,11.262,0,0,0,3.589,18.359,11.126,11.126,0,0,0,4.387.871,10.881,10.881,0,0,0,4.327-.857Zm4.106,2.762a7.923,7.923,0,0,1-4.239-1.329,12.441,12.441,0,0,1-4.5.827,12.224,12.224,0,0,1-4.874-.975A12.483,12.483,0,0,1,223.4,15.01a12.224,12.224,0,0,1,.975-4.874,12.716,12.716,0,0,1,2.673-3.973,12.509,12.509,0,0,1,3.973-2.688,12.672,12.672,0,0,1,9.748,0,12.574,12.574,0,0,1,3.988,2.688A12.438,12.438,0,0,1,248.4,15.01a12.224,12.224,0,0,1-.975,4.874,12.735,12.735,0,0,1-2.5,3.8,2.972,2.972,0,0,0,1.876,2.732l1.388.458-1.3.694A5.43,5.43,0,0,1,244.639,28.022Z" transform="translate(-190.405 -0.426)" fill="#fff"/>
    <path id="Path_336" data-name="Path 336" d="M272.756,46.278a7.033,7.033,0,0,1-.561,2.791,7.34,7.34,0,0,1-1.536,2.289,7.173,7.173,0,0,1-2.289,1.536,7.222,7.222,0,0,1-5.583,0,7.34,7.34,0,0,1-2.289-1.536,7.174,7.174,0,0,1-1.536-2.289,7.222,7.222,0,0,1,0-5.583A7.34,7.34,0,0,1,260.5,41.2a7.173,7.173,0,0,1,2.289-1.536,7.222,7.222,0,0,1,5.583,0,7.34,7.34,0,0,1,2.289,1.536,7.014,7.014,0,0,1,1.536,2.289,7.085,7.085,0,0,1,.561,2.791" transform="translate(-220.236 -31.62)" fill="#fff"/>
    <path id="Path_337" data-name="Path 337" d="M263.7,37.635h0a6.749,6.749,0,0,0-2.673.532,6.941,6.941,0,0,0-3.663,3.663,6.986,6.986,0,0,0,0,5.347,6.966,6.966,0,0,0,1.477,2.186,7.225,7.225,0,0,0,2.186,1.477,6.894,6.894,0,0,0,9.009-3.663,6.986,6.986,0,0,0,0-5.347,6.887,6.887,0,0,0-1.477-2.186,6.966,6.966,0,0,0-2.186-1.477,6.749,6.749,0,0,0-2.673-.532m0,14.341a7.485,7.485,0,0,1-2.924-.576,7.6,7.6,0,0,1-2.378-1.61,7.776,7.776,0,0,1-1.61-2.378,7.442,7.442,0,0,1-.591-2.924,7.189,7.189,0,0,1,.591-2.924,7.592,7.592,0,0,1,3.988-3.988,7.674,7.674,0,0,1,5.834,0,7.522,7.522,0,0,1,2.378,1.61,7.692,7.692,0,0,1,1.61,2.378,7.422,7.422,0,0,1,.591,2.91,7.445,7.445,0,0,1-2.2,5.3,7.775,7.775,0,0,1-2.378,1.61A7.119,7.119,0,0,1,263.7,51.976Z" transform="translate(-218.36 -29.831)" fill="#fff"/>
    <path id="Path_338" data-name="Path 338" d="M55.74,194.271h-.724v-2.1a.869.869,0,0,0-.148-.576.534.534,0,0,0-.458-.192.679.679,0,0,0-.606.266,1.7,1.7,0,0,0-.192.9v1.7h-.738v-3.4h.561l.1.443h.03a.919.919,0,0,1,.414-.369,1.288,1.288,0,0,1,.591-.133,1.026,1.026,0,0,1,1.034.532h.044a1.12,1.12,0,0,1,.428-.4,1.373,1.373,0,0,1,.62-.148,1.154,1.154,0,0,1,.886.31,1.324,1.324,0,0,1,.281.93v2.215h-.709v-2.1a.869.869,0,0,0-.148-.576.534.534,0,0,0-.458-.192.725.725,0,0,0-.62.266,1.346,1.346,0,0,0-.192.812Zm-6.159-1.713c0,.783.3,1.182.871,1.182s.857-.4.857-1.182-.3-1.167-.871-1.167a.772.772,0,0,0-.665.3A1.658,1.658,0,0,0,49.581,192.558Zm2.467,0a1.862,1.862,0,0,1-.428,1.3,1.524,1.524,0,0,1-1.182.473,1.592,1.592,0,0,1-.842-.222,1.429,1.429,0,0,1-.561-.62,2.055,2.055,0,0,1-.192-.93,1.848,1.848,0,0,1,.428-1.285,1.733,1.733,0,0,1,2.363.015A1.9,1.9,0,0,1,52.048,192.558Zm-4.756,1.772a1.441,1.441,0,0,1-1.167-.458,2.283,2.283,0,0,1,.015-2.6,1.539,1.539,0,0,1,1.211-.458,2.234,2.234,0,0,1,.96.207l-.222.576a2.244,2.244,0,0,0-.753-.177c-.591,0-.886.384-.886,1.167a1.381,1.381,0,0,0,.222.857.753.753,0,0,0,.65.281,1.841,1.841,0,0,0,.916-.236v.635a1.419,1.419,0,0,1-.414.162A2.752,2.752,0,0,1,47.292,194.33Zm-3.2-.443a.482.482,0,0,1,.8-.34.5.5,0,0,1,.118.34.472.472,0,0,1-.118.34.5.5,0,0,1-.679,0A.472.472,0,0,1,44.087,193.887Zm-28.594,0a.482.482,0,0,1,.8-.34.5.5,0,0,1,.118.34.472.472,0,0,1-.118.34.5.5,0,0,1-.679,0A.472.472,0,0,1,15.493,193.887Zm-1.979.384-.443-1.58c-.059-.162-.148-.561-.3-1.167h-.03c-.118.546-.207.945-.281,1.182l-.458,1.58h-.783l-.945-3.4h.738l.428,1.669c.1.414.162.768.207,1.063h.015a4.223,4.223,0,0,1,.089-.517c.044-.192.074-.34.1-.428l.517-1.787h.8l.5,1.787c.03.1.074.251.118.458a2.6,2.6,0,0,1,.074.487h.03a7.984,7.984,0,0,1,.222-1.049l.443-1.669h.724l-.96,3.4h-.812Zm-5.14,0-.443-1.58c-.059-.162-.148-.561-.3-1.167h-.03c-.118.546-.207.945-.281,1.182l-.458,1.58h-.8l-.945-3.4h.738l.428,1.669c.1.414.162.768.207,1.063h.015A4.223,4.223,0,0,1,6.6,193.1c.044-.192.074-.34.1-.428l.517-1.787h.8l.5,1.787c.03.1.074.251.118.458a2.6,2.6,0,0,1,.074.487h.03a7.984,7.984,0,0,1,.222-1.049l.443-1.669h.724l-.96,3.4h-.8Zm-5.14,0-.443-1.58c-.059-.162-.148-.561-.3-1.167h-.03c-.118.546-.207.945-.281,1.182l-.458,1.58H.945L0,190.889H.738l.428,1.669c.1.414.162.768.207,1.063h.015a4.223,4.223,0,0,1,.089-.517c.044-.192.074-.34.1-.428l.517-1.787h.8l.5,1.787c.03.1.074.251.118.458a2.6,2.6,0,0,1,.074.487h.03a7.984,7.984,0,0,1,.222-1.049l.443-1.669h.724l-.96,3.4H3.235Z" transform="translate(0 -160.915)" fill="#fff"/>
    <path id="Path_339" data-name="Path 339" d="M139.7,184.952a3.189,3.189,0,0,0,.192,1.314.659.659,0,0,0,1.211,0,4.5,4.5,0,0,0,0-2.6.659.659,0,0,0-1.211,0,3.135,3.135,0,0,0-.192,1.285m2.319,0a3.363,3.363,0,0,1-.369,1.743,1.271,1.271,0,0,1-1.152.561,1.253,1.253,0,0,1-1.137-.591,3.164,3.164,0,0,1-.384-1.713,3.386,3.386,0,0,1,.369-1.758,1.3,1.3,0,0,1,1.152-.561,1.253,1.253,0,0,1,1.137.591A3.124,3.124,0,0,1,142.019,184.952Zm-5.051,1.713a.7.7,0,0,0,.576-.236,1.036,1.036,0,0,0,.207-.679.853.853,0,0,0-.192-.606.7.7,0,0,0-.561-.222.837.837,0,0,0-.428.1.818.818,0,0,0-.31.281.676.676,0,0,0-.118.354,1.069,1.069,0,0,0,.236.724A.757.757,0,0,0,136.968,186.665Zm-1.566-1.388c0-1.758.709-2.629,2.142-2.629a2.229,2.229,0,0,1,.576.059v.606a1.956,1.956,0,0,0-.546-.074,1.409,1.409,0,0,0-1.078.384,2,2,0,0,0-.4,1.241h.03a1.1,1.1,0,0,1,.4-.384,1.371,1.371,0,0,1,.62-.133,1.183,1.183,0,0,1,.945.369,1.488,1.488,0,0,1,.34,1.019,1.557,1.557,0,0,1-.4,1.122,1.4,1.4,0,0,1-1.078.414,1.445,1.445,0,0,1-.842-.236,1.575,1.575,0,0,1-.546-.679A3.766,3.766,0,0,1,135.4,185.277Zm-.724-1.536a1.065,1.065,0,0,1-.251.709,1.278,1.278,0,0,1-.694.384v.03a1.377,1.377,0,0,1,.812.34.958.958,0,0,1,.266.709,1.189,1.189,0,0,1-.458,1,2.093,2.093,0,0,1-1.3.354,2.887,2.887,0,0,1-1.255-.236V186.4a4.232,4.232,0,0,0,.606.222,2.965,2.965,0,0,0,.62.074,1.275,1.275,0,0,0,.783-.192.688.688,0,0,0,.251-.606.578.578,0,0,0-.281-.532,1.779,1.779,0,0,0-.9-.162h-.384v-.591h.4c.724,0,1.078-.251,1.078-.738a.523.523,0,0,0-.192-.443.832.832,0,0,0-.546-.162,1.768,1.768,0,0,0-.487.074,2.463,2.463,0,0,0-.561.281l-.354-.5a2.307,2.307,0,0,1,1.433-.458,1.718,1.718,0,0,1,1.063.3A.964.964,0,0,1,134.679,183.741Zm-3.412,2.481a.888.888,0,0,1-.369.768,1.725,1.725,0,0,1-1.034.266,2.527,2.527,0,0,1-1.093-.207v-.62a2.784,2.784,0,0,0,1.108.281q.665,0,.665-.4a.363.363,0,0,0-.074-.222.816.816,0,0,0-.236-.177,3.976,3.976,0,0,0-.473-.207,2.352,2.352,0,0,1-.8-.458.871.871,0,0,1-.207-.591.773.773,0,0,1,.354-.679,1.65,1.65,0,0,1,.96-.236,2.707,2.707,0,0,1,1.137.236l-.236.546a2.609,2.609,0,0,0-.93-.222c-.384,0-.576.1-.576.325a.313.313,0,0,0,.148.266,3.355,3.355,0,0,0,.65.31,2.548,2.548,0,0,1,.606.3.794.794,0,0,1,.281.31A.651.651,0,0,1,131.267,186.222Zm-3.294.975h-.724v-2.083a.939.939,0,0,0-.162-.591.606.606,0,0,0-.5-.192.777.777,0,0,0-.665.266,1.449,1.449,0,0,0-.207.9v1.7h-.724v-3.4h.561l.1.443h.03a1,1,0,0,1,.443-.369,1.462,1.462,0,0,1,.62-.133,1.092,1.092,0,0,1,1.226,1.241Zm-5.583-.487a.9.9,0,0,0,.635-.222.791.791,0,0,0,.236-.62v-.3l-.443.015a1.454,1.454,0,0,0-.738.177.5.5,0,0,0-.236.458.479.479,0,0,0,.133.354A.605.605,0,0,0,122.391,186.709Zm1.078.487-.148-.473h-.03a1.41,1.41,0,0,1-.487.428,1.572,1.572,0,0,1-.635.118,1.093,1.093,0,0,1-.783-.266.983.983,0,0,1-.281-.768.917.917,0,0,1,.384-.8,2.229,2.229,0,0,1,1.182-.3l.591-.015v-.192a.665.665,0,0,0-.148-.487.653.653,0,0,0-.473-.162,1.876,1.876,0,0,0-.5.074,4.208,4.208,0,0,0-.458.177l-.236-.517a2.447,2.447,0,0,1,.606-.222,3.213,3.213,0,0,1,.62-.074,1.449,1.449,0,0,1,.975.281,1.108,1.108,0,0,1,.325.886v2.289h-.5Zm-3.914-4.3a.381.381,0,0,1,.1-.3.4.4,0,0,1,.3-.1.361.361,0,0,1,.4.4.4.4,0,0,1-.1.3.381.381,0,0,1-.3.1.361.361,0,0,1-.3-.1A.4.4,0,0,1,119.555,182.9Zm-.31,5.8a1.878,1.878,0,0,1-.546-.074v-.576a2,2,0,0,0,.428.059c.31,0,.458-.177.458-.517v-3.8h.724v3.84a1.03,1.03,0,0,1-.281.8A1.046,1.046,0,0,1,119.245,188.7ZM117,186.709a.9.9,0,0,0,.635-.222.791.791,0,0,0,.236-.62v-.3l-.443.015a1.454,1.454,0,0,0-.738.177.5.5,0,0,0-.236.458.479.479,0,0,0,.133.354A.58.58,0,0,0,117,186.709Zm1.063.487-.148-.473h-.03a1.41,1.41,0,0,1-.487.428,1.572,1.572,0,0,1-.635.118,1.093,1.093,0,0,1-.783-.266.983.983,0,0,1-.281-.768.917.917,0,0,1,.384-.8,2.229,2.229,0,0,1,1.182-.3l.591-.015v-.192a.665.665,0,0,0-.148-.487.653.653,0,0,0-.473-.162,1.876,1.876,0,0,0-.5.074,4.208,4.208,0,0,0-.458.177l-.236-.517a2.447,2.447,0,0,1,.606-.222,3.213,3.213,0,0,1,.62-.074,1.449,1.449,0,0,1,.975.281,1.108,1.108,0,0,1,.325.886v2.289h-.5Z" transform="translate(-98.612 -153.841)" fill="#fff"/>
  </g>
</svg>
