<svg id="_Group_" data-name="&lt;Group&gt;" xmlns="http://www.w3.org/2000/svg" width="261.4" height="60" viewBox="0 0 261.4 60">
  <g id="_Group_2" data-name="&lt;Group&gt;">
    <path id="_Compound_Path_" data-name="&lt;Compound Path&gt;" d="M19.2.5l-7.4,11,7.9,17.2H13.5L8.2,16.3H8.1L6.4,18.7v10H.5V.5H6.4V10.6h.1L12.7.5Z" fill="#fff"/>
    <path id="_Compound_Path_2" data-name="&lt;Compound Path&gt;" d="M41.2,20.6c0,4.9-2.6,8.5-9.5,8.5-7,0-9.5-3.6-9.5-8.5V.5h5.9V19.6c0,2.8.9,4.1,3.6,4.1,2.6,0,3.5-1.3,3.5-4.1V.5h6Z" fill="#fff"/>
    <path id="_Compound_Path_3" data-name="&lt;Compound Path&gt;" d="M45.9.5H61.4V5.9L51.9,23.2h9.5v5.5H45.1V23.4L54.5,5.9H45.9Z" fill="#fff"/>
    <path id="_Compound_Path_4" data-name="&lt;Compound Path&gt;" d="M66,.5H80V5.9H71.9v5.2H80v5.5H71.9v6.6H80v5.5H66Z" fill="#fff"/>
    <path id="_Compound_Path_5" data-name="&lt;Compound Path&gt;" d="M92.6,11.6,96.4.5h6.1L95.6,17.1V28.7h-6V17.1L82.7.5h6.1Z" fill="#fff"/>
    <path id="_Compound_Path_6" data-name="&lt;Compound Path&gt;" d="M124.3,23.9a3.077,3.077,0,0,0,3.4-3.3c0-4.8-12.5-2.5-12.5-11.9,0-5.3,3.3-8.7,8.8-8.7,5.4,0,8.3,2.5,9.2,8h-5.8a3.05,3.05,0,1,0-6.1,0c0,5,12.4,2,12.4,12.6,0,5.3-4,8.5-9.5,8.5-6.6,0-9.5-3.4-9.5-9.3h5.9c.2,2.8,1.1,4.1,3.7,4.1Z" fill="#fff"/>
    <path id="_Compound_Path_7" data-name="&lt;Compound Path&gt;" d="M146.8,28.7h-5.9V5.9H136V.5h15.6V5.9h-4.8Z" fill="#fff"/>
    <path id="_Compound_Path_8" data-name="&lt;Compound Path&gt;" d="M167.2,28.7l-1.5-5.4h-6.6l-1.4,5.4h-6L159.6.5H165l8.2,28.2Zm-4.9-20-1.7,9.1h3.6l-1.8-9.1Z" fill="#fff" fill-rule="evenodd"/>
    <path id="_Compound_Path_9" data-name="&lt;Compound Path&gt;" d="M185.2.5c5.1,0,8.4,4.2,8.4,9,0,3.2-1.7,7.2-5.8,7.8l7.1,11.4h-6.8l-6.2-11h-.1v11h-5.9V.5Zm-1.5,12.4c2.4,0,3.8-1.1,3.8-3.5,0-2.3-1.4-3.5-3.8-3.5h-2v7Z" fill="#fff" fill-rule="evenodd"/>
  </g>
  <g id="_Group_3" data-name="&lt;Group&gt;">
    <path id="_Compound_Path_10" data-name="&lt;Compound Path&gt;" d="M8.1,55.6a2.576,2.576,0,0,0,2.8-2.8c0-4.1-10.5-2.1-10.5-10,0-4.6,2.8-7.4,7.5-7.4,4.5,0,6.9,2.1,7.7,6.8H10.7c-.1-1.7-1-2.7-2.6-2.7a2.521,2.521,0,0,0-2.6,2.6c0,4.3,10.6,1.7,10.6,10.7,0,4.5-3.5,7.2-8.1,7.2-5.6,0-8-2.9-8-7.9H5c.1,2.4.9,3.5,3.1,3.5Z" fill="#fff"/>
    <path id="_Compound_Path_11" data-name="&lt;Compound Path&gt;" d="M27.8,35.8h5v9h6v-9h5V59.6h-5V49.4h-6V59.6h-5Z" fill="#fff"/>
    <path id="_Compound_Path_12" data-name="&lt;Compound Path&gt;" d="M56.5,35.8h5V59.6h-5Z" fill="#fff"/>
    <path id="_Compound_Path_13" data-name="&lt;Compound Path&gt;" d="M89.3,43.5c0,5-3.4,7.8-8,7.8H79.4v8.3h-5V35.8h6.9C85.9,35.8,89.3,38.5,89.3,43.5Zm-8,3.2c1.9,0,2.9-.9,2.9-3.2,0-2.2-1-3.1-2.9-3.1H79.4v6.3Z" fill="#fff" fill-rule="evenodd"/>
    <path id="_Compound_Path_14" data-name="&lt;Compound Path&gt;" d="M107.2,45.2l3.2-9.4h5.2l-5.9,14.1v9.7h-5V49.9L98.8,35.8H104l3.2,9.4Z" fill="#fff"/>
    <path id="_Compound_Path_15" data-name="&lt;Compound Path&gt;" d="M135.8,59.6l-1.2-4.5H129l-1.2,4.5h-5.1l6.7-23.8H134l6.9,23.8Zm-4.1-16.8-1.5,7.7h3.1l-1.5-7.7Z" fill="#fff" fill-rule="evenodd"/>
    <path id="_Compound_Path_16" data-name="&lt;Compound Path&gt;" d="M159.5,35.8c4.3,0,7.1,3.6,7.1,7.6,0,2.7-1.4,6.1-4.9,6.6l6,9.6h-5.8l-5.2-9.3h-.1v9.3h-5V35.8Zm-1.3,10.5c2.1,0,3.3-1,3.3-3,0-1.9-1.2-2.9-3.3-2.9h-1.6v5.9Z" fill="#fff" fill-rule="evenodd"/>
    <path id="_Compound_Path_17" data-name="&lt;Compound Path&gt;" d="M185.9,35.8c6.2,0,9.5,5.4,9.5,11.9s-3.3,11.9-9.5,11.9h-7.5V35.8Zm0,19.2c2.8,0,4.3-3,4.3-7.3,0-4.4-1.5-7.3-4.3-7.3h-2.5V55Z" fill="#fff" fill-rule="evenodd"/>
  </g>
  <g id="_Group_4" data-name="&lt;Group&gt;">
    <g id="_Group_5" data-name="&lt;Group&gt;">
      <g id="_Group_6" data-name="&lt;Group&gt;">
        <path id="_Compound_Path_18" data-name="&lt;Compound Path&gt;" d="M208.7,6.1l-.1.1q-.3.1-.3.9V9.7h-.1l-.1-.1-2.9-3.1V8.6q0,.8.5.9v.1h-1q.4-.2.4-1V7.1a1.716,1.716,0,0,0-.1-.7.177.177,0,0,0-.2-.2l-.1-.1h1l2.5,2.4V7.2a2.735,2.735,0,0,1-.1-.6.636.636,0,0,0-.4-.5h1Z" fill="#fff"/>
      </g>
      <g id="_Group_7" data-name="&lt;Group&gt;">
        <path id="_Compound_Path_19" data-name="&lt;Compound Path&gt;" d="M214.2,6.1l-.1.1a1.14,1.14,0,0,0-.4.6l-1,2.7-.1.2q-.1,0-.2-.2L211.5,7l-1,2.5q0,.2-.1.2l-.1-.2-1.2-3.1a.177.177,0,0,0-.2-.2l-.1-.1H210q-.2.1-.2.2a4.179,4.179,0,0,0,.2.7l.7,1.7.8-2.4q.1-.3.2-.3l.2.3,1,2.4.6-1.7a1.645,1.645,0,0,0,.1-.5.392.392,0,0,0-.3-.4h.9Z" fill="#fff"/>
      </g>
    </g>
    <g id="_Group_8" data-name="&lt;Group&gt;">
      <g id="_Group_9" data-name="&lt;Group&gt;">
        <path id="_Compound_Path_20" data-name="&lt;Compound Path&gt;" d="M254.8,53.5h-.1v.1q-.3.1-.3.9v2.6h-.1l-.1-.1-2.9-3.1V56q0,.8.4,1h-1q.5-.2.5-1V54.5a1.716,1.716,0,0,0-.1-.7q-.1-.2-.2-.2l-.1-.1h1l2.4,2.5V54a.964.964,0,0,0-.4-.5h1Z" fill="#fff"/>
      </g>
      <g id="_Group_10" data-name="&lt;Group&gt;">
        <path id="_Compound_Path_21" data-name="&lt;Compound Path&gt;" d="M258.4,56.2h0l-.2.8h-3.5l.1-.1a.644.644,0,0,0,.3-.4V54.2a.579.579,0,0,0-.1-.4.177.177,0,0,0-.2-.2l-.1-.1H258l.1.5v.2a.971.971,0,0,0-.6-.4,1.775,1.775,0,0,0-.8-.2h-1v1.5h1a1.888,1.888,0,0,0,.6-.1l.3-.3v1h0a.636.636,0,0,0-.5-.4,1.113,1.113,0,0,0-.5-.1h-.9v1.2a.4.4,0,0,0,.5.5h.6a1.775,1.775,0,0,0,.8-.2,6.54,6.54,0,0,0,.7-.4l.1-.1h0Z" fill="#fff"/>
      </g>
    </g>
    <g id="_Group_11" data-name="&lt;Group&gt;">
      <g id="_Group_12" data-name="&lt;Group&gt;">
        <path id="_Compound_Path_22" data-name="&lt;Compound Path&gt;" d="M254.5,7.4q0,.1-.2.1-.6.4-.6,1.9v5.1q0,.2-.1.2t-.3-.2l-5.7-6.3v4.3q0,1.4.8,1.8l.1.1h-2.1q.9-.4.9-1.9V9.4a3.432,3.432,0,0,0-.2-1.4.6.6,0,0,0-.4-.4l-.1-.1a.088.088,0,0,1,.1-.1h1.8l4.9,4.9V9.7a6.856,6.856,0,0,0-.1-1.3,1.226,1.226,0,0,0-.8-.9.088.088,0,0,1-.1-.1h2.1Z" fill="#fff"/>
      </g>
    </g>
    <g id="_Group_13" data-name="&lt;Group&gt;">
      <path id="_Compound_Path_23" data-name="&lt;Compound Path&gt;" d="M261.4,59v.6H202.5V.5h.4a58.306,58.306,0,0,1,40.9,16.6l2.4-2-2,2.4a.088.088,0,0,0,.1.1A58.156,58.156,0,0,1,261.4,59ZM203.3,12.3l2,2h.1l2.6-2.1,2.1,2.6h.1l2.7-1.8,1.8,2.8h.1l3-1.5,1.4,3h.1l3.1-1.1,1.2,3a.088.088,0,0,0,.1.1l3.2-.8.8,3.2h.1l3.2-.5.5,3.3.1.1,3.3-.2v.2l8.2-6.9A57.544,57.544,0,0,0,203.3,1.3Zm1,45.4,35.4-36L207.3,49.1Zm1.1-25.5,1.6,16,12.3-10.5a27.263,27.263,0,0,0-13.9-5.5Zm4.2-12.3a34.852,34.852,0,0,1,3.6.8l1.1-4.2a28.054,28.054,0,0,0-4.1-.9Zm.2-4.4a27.562,27.562,0,0,0-4.1-.5l-.2,4.4a33.027,33.027,0,0,1,3.6.4Zm4,5.3q1.7.5,3.5,1.2l1.5-4.1q-1.9-.7-3.9-1.3Zm4,1.3.4.2h0a.088.088,0,0,1,.1.1h0a27.249,27.249,0,0,1,2.8,1.3l2.1-3.9a31.668,31.668,0,0,0-3.8-1.7Zm9.4,0q-1.8-1.2-3.6-2.2l-2,3.9q1.6.9,3.2,1.9Zm-2,4a30.17,30.17,0,0,1,2.9,2.2l2.8-3.4q-1.6-1.3-3.3-2.5Zm-3.1,8.5a3.277,3.277,0,0,1,.5.4l6.4-5.3A39,39,0,0,0,218.5,23a29.174,29.174,0,0,0,3.6,11.6Zm7.2-5.3,3.4-2.8-1.4-1.2-2.8,3.3A7.508,7.508,0,0,0,229.3,29.3Zm-25.2-10a4.635,4.635,0,0,0,.9.1l.2-4.4h-1.5Zm0,.5L205,28l2,.2h0a31.459,31.459,0,0,0,10.6-5.6,38.76,38.76,0,0,0-13.5-2.8Zm15.7,17.5,2.3-1.9a29.807,29.807,0,0,0-17-6.7l.3,2.9a28.314,28.314,0,0,1,14.4,5.7Zm40.8,21.3A57.384,57.384,0,0,0,243.7,18l-7.8,9.7,2.6.1-.3,3.3.1.1,3.2.6L241,35v.1l3.2.9-.9,3.2v.1l3.1,1.2-1.3,3.1.1.1,2.9,1.5-1.6,2.9v.2l2.7,1.8-1.8,2.7v.1l2.5,2.2-2.2,2.5v.1l.9.8v.1ZM240.3,45.7a30.168,30.168,0,0,1,1,3.5l4.3-1.1a37.771,37.771,0,0,0-1.2-3.9ZM230.2,56.6l2.9.3a29.858,29.858,0,0,0-6.8-17.3l-1.9,2.3A27.423,27.423,0,0,1,230.2,56.6Zm-6.1-14.3L213.9,54.9l15.7,1.7a26.575,26.575,0,0,0-5.5-14.3Zm14.8,1.2a38.272,38.272,0,0,0-7-10.9l-5.2,6.5a10.914,10.914,0,0,1,.8.9h0A32.538,32.538,0,0,0,238.9,43.5Zm3.5-4.1a39.6,39.6,0,0,0-2-3.7l-3.7,2.4q1,1.6,1.8,3.2Zm-2.3-4.1q-1.1-1.7-2.4-3.4l-3.4,2.7q1.1,1.5,2.1,3.1Zm-2.7-3.8L235,28.7l-2.8,3.5a16.768,16.768,0,0,1,1.7,2Zm3.3,27.1-27-2.9-8.2,2.9Zm1.3-.8a38.66,38.66,0,0,0-2.7-13.5,30.993,30.993,0,0,0-5.6,10.8,17.222,17.222,0,0,1,.1,1.9Zm.2-4.5,4.3-.6q-.3-2.1-.7-4.1l-4.3,1q.4,1.8.7,3.7Zm.3,4.1,4.4-.1a27.606,27.606,0,0,0-.3-4.1l-4.3.6a32.575,32.575,0,0,1,.2,3.6Zm4.4.9v-.5l-3.4.1Zm-2.6-14.7q-.7-1.9-1.6-3.8l-4,1.9q.5,1,.9,1.9v.1h0l.6,1.4Z" fill="#fff" fill-rule="evenodd"/>
    </g>
    <g id="_Group_14" data-name="&lt;Group&gt;">
      <path id="_Path_" data-name="&lt;Path&gt;" d="M214.9,32.8a1.114,1.114,0,0,1-1.4.6,1.077,1.077,0,1,1,.8-2A1.066,1.066,0,0,1,214.9,32.8Z" fill="#fff"/>
    </g>
    <g id="_Group_15" data-name="&lt;Group&gt;">
      <path id="_Path_2" data-name="&lt;Path&gt;" d="M229.9,48.9a.994.994,0,0,1-1.4-.5,1.033,1.033,0,0,1,.6-1.4,1.1,1.1,0,0,1,1.4.6,1.04,1.04,0,0,1-.6,1.3Z" fill="#fff"/>
    </g>
    <g id="_Group_16" data-name="&lt;Group&gt;">
      <path id="_Path_3" data-name="&lt;Path&gt;" fill="#fff" stroke="#e10a17" stroke-width="3"/>
    </g>
    <g id="_Group_17" data-name="&lt;Group&gt;">
      <path id="_Path_4" data-name="&lt;Path&gt;" fill="#fff" stroke="#e10a17" stroke-width="3"/>
    </g>
  </g>
</svg>
