<svg id="logo-2" xmlns="http://www.w3.org/2000/svg" width="240" height="82.466" viewBox="0 0 240 82.466">
  <path id="Path_200" data-name="Path 200" d="M186.5,95.458V65.974h-3.251v-.653h22.785l.577,7.489H205.9c-.228-2.643-.942-4.451-2.142-5.392S200.292,65.9,196.98,65.9h-5.833V80.025h1.428a9.19,9.19,0,0,0,5.347-1.078,5.165,5.165,0,0,0,1.352-4.162V74.6h.653V86.146h-.653v-.319a5.043,5.043,0,0,0-1.215-3.965c-.805-.7-2.643-1.048-5.484-1.048h-1.428V95.458H197.1q5.97,0,8.263-1.823c1.519-1.215,2.294-3.327,2.294-6.349v-.137h.653v8.962H183.248v-.653Zm-29.529-3.57a3.873,3.873,0,0,0,.7,2.81,3.038,3.038,0,0,0,1.246.532,8.552,8.552,0,0,0,2.142.228v.653h-8.491v-.653a6.075,6.075,0,0,0,1.732-.2,2.521,2.521,0,0,0,1.063-.562A4.253,4.253,0,0,0,156,91.843V66.02h-3.433v-.7h8.795l16.451,22.633V69.559c0-1.519-.228-2.415-.729-2.825a2.749,2.749,0,0,0-1.23-.532,8.551,8.551,0,0,0-2.142-.228v-.653h8.461v.653a5.7,5.7,0,0,0-1.732.228,2.491,2.491,0,0,0-1.063.547,4.36,4.36,0,0,0-.623,2.871V96.339h-.532L156.955,67.326Zm-16.709,4.223v-.653h3.478V65.974h-3.478v-.653H151.73v.653h-3.266V95.458h3.3v.653Zm-25.975,0v-.653h3.585V65.974h-3.554v-.653H137.6l.668,7.853h-.759a7.382,7.382,0,0,0-2.491-5.62q-2.172-1.519-7.595-1.519H122.6V80.161h1.23c3.038,0,5.043-.38,5.939-1.139a5.757,5.757,0,0,0,1.337-4.466v-.273h.668V86.207H131.1a5.514,5.514,0,0,0-1.322-4.314c-.881-.744-2.871-1.109-5.954-1.109H122.6V95.473h3.691v.653ZM88.57,95.458V65.974H85.35v-.653h22.709l.638,7.443h-.638a7.382,7.382,0,0,0-2.142-5.392c-1.2-.957-3.463-1.519-6.775-1.519H93.248V79.979h1.428a9.19,9.19,0,0,0,5.347-1.078,5.119,5.119,0,0,0,1.352-4.162v-.182h.608V86.1h-.608v-.273a5.043,5.043,0,0,0-1.215-3.949c-.805-.7-2.628-1.048-5.484-1.048H93.248V95.473H99.2q5.97,0,8.263-1.823c1.519-1.215,2.294-3.327,2.294-6.349v-.137h.653v8.962H85.35v-.653ZM64.008,85.1h.638a12.608,12.608,0,0,0,.805,4.557,11.742,11.742,0,0,0,2.111,3.494A8.491,8.491,0,0,0,74.2,96.1a7.6,7.6,0,0,0,5.286-2.066,6.577,6.577,0,0,0,2.142-5.013,5.879,5.879,0,0,0-.486-2.354,5.058,5.058,0,0,0-1.519-1.884c-1-.9-3.372-1.7-7.078-2.385l-.608-.122a11.3,11.3,0,0,1-6.213-2.841A8.111,8.111,0,0,1,64.008,73.8a9.372,9.372,0,0,1,2.309-6.668,8.127,8.127,0,0,1,6.2-2.446A10.466,10.466,0,0,1,77.451,66l2.567,1.322a1.063,1.063,0,0,0,.835-.425,1.732,1.732,0,0,0,.334-1.094v-.258h.653v9.114h-.653a11.924,11.924,0,0,0-2.825-6.881,7.6,7.6,0,0,0-5.863-2.43,6.7,6.7,0,0,0-4.77,1.625,6.076,6.076,0,0,0-1.716,4.557,8.216,8.216,0,0,0,.137,1.519,4.86,4.86,0,0,0,.456,1.322,5.028,5.028,0,0,0,1.884,1.96,11.984,11.984,0,0,0,3.448.9c1.792.273,3.159.516,4.116.759a11.013,11.013,0,0,1,5.954,3.038,8.278,8.278,0,0,1,1.747,5.635,10.268,10.268,0,0,1-2.613,7.367,9.008,9.008,0,0,1-6.851,2.749,13.671,13.671,0,0,1-5.408-1.215,20.552,20.552,0,0,0-3.159-1.2.927.927,0,0,0-.79.486,2.4,2.4,0,0,0-.243.592,2.294,2.294,0,0,0-.106.729h-.577Z" transform="translate(31.688 -46.759)" fill="#fff"/>
  <path id="Path_201" data-name="Path 201" d="M118.93,61.17a2.43,2.43,0,1,1-2.43,2.43,2.43,2.43,0,0,1,2.43-2.43" transform="translate(58.943 -48.578)" fill="#fff" fill-rule="evenodd"/>
  <path id="Path_202" data-name="Path 202" d="M171.182,89.918h1.671a7.321,7.321,0,0,1,2.765.486,4.36,4.36,0,0,1,1.792,1.4,5.879,5.879,0,0,1,.987,2.157,12.289,12.289,0,0,1,.289,2.81,11.378,11.378,0,0,1-.106,1.656,8.188,8.188,0,0,1-.349,1.519,7.124,7.124,0,0,1-.668,1.428,4.268,4.268,0,0,1-.942,1.109,3.4,3.4,0,0,1-1.109.638,5.878,5.878,0,0,1-1.261.3,12.367,12.367,0,0,1-1.322,0h-1.747Zm-4.147,13.671h7.109a8.846,8.846,0,0,0,.972-.091,3.981,3.981,0,0,0,.866-.182,6.408,6.408,0,0,0,.9-.319,6.9,6.9,0,0,0,1.519-.942,5.818,5.818,0,0,0,1.291-1.367,6.623,6.623,0,0,0,.866-1.838,8.369,8.369,0,0,0,.3-2.324A8.081,8.081,0,0,0,180.6,94.4a6.365,6.365,0,0,0-.835-1.884A5.924,5.924,0,0,0,178.337,91a6.957,6.957,0,0,0-2.066-1.048,5.985,5.985,0,0,0-.775-.213l-.76-.152H166.96v.273h2.187v13.428H166.96ZM157.01,89.918h1.337a4.876,4.876,0,0,1,1.033.106,2.263,2.263,0,0,1,.957.349,2.233,2.233,0,0,1,.684.927,4.421,4.421,0,0,1,.258,1.641,5.209,5.209,0,0,1-.182,1.519,2.005,2.005,0,0,1-.5.927,1.732,1.732,0,0,1-.775.486,3.372,3.372,0,0,1-.987.137h-1.808Zm-4.147,13.671h6.319v-.273H157.01V96.267h2.582a2.81,2.81,0,0,1,.744.182,1.853,1.853,0,0,1,.668.425,2.066,2.066,0,0,1,.532.79,3.63,3.63,0,0,1,.273,1.291l.137,1.777a9.265,9.265,0,0,0,.213,1.322,2.613,2.613,0,0,0,.471.942,1.959,1.959,0,0,0,.835.577,3.844,3.844,0,0,0,1.291.2,4.361,4.361,0,0,0,.881-.091,2.309,2.309,0,0,0,.532-.2l.319-.228-.182-.213a1.261,1.261,0,0,1-.486.3,1.383,1.383,0,0,1-.532.106.972.972,0,0,1-.608-.2,1.215,1.215,0,0,1-.38-.486,4.12,4.12,0,0,1-.213-.653,5.605,5.605,0,0,1-.091-.835,4.6,4.6,0,0,0-.076-1,4.7,4.7,0,0,1,0-1.033,5.928,5.928,0,0,0-.167-.9,2.385,2.385,0,0,0-.486-.911,3.038,3.038,0,0,0-.775-.638,5.059,5.059,0,0,0-.881-.395l-.851-.228-.653-.106h0a5.377,5.377,0,0,0,1.519-.395,3.8,3.8,0,0,0,1.018-.653,3.038,3.038,0,0,0,.577-.759,2.72,2.72,0,0,0,.273-.729,2.127,2.127,0,0,0,0-.577,2.72,2.72,0,0,0-.122-.835,2.583,2.583,0,0,0-.41-.851,3.417,3.417,0,0,0-1.792-1.352,5.074,5.074,0,0,0-1.215-.243h-7.018v.273h2.172v13.428h-2.172Zm-6.623-6.076h-4.314l2.157-5.62Zm-8.537,6.076h4.223v-.273h-2.187l2.066-5.347h4.557l2.066,5.453h-2.187v.273h6.076v-.273H150.57L145.147,89.3h-.471l-5.3,14.051H137.7Zm-8.354,0h6.334v-.273H133.5V97.088l3.828-7.17h1.914v-.273H135.03v.273h1.99L133.3,96.829l-3.919-6.911h1.959v-.273h-6.076v.273h1.792l4.42,7.792v5.635h-2.127ZM117.38,89.918h1.139a7.23,7.23,0,0,1,1.625.167,2.2,2.2,0,0,1,1.716,1.625,6.365,6.365,0,0,1,.2,1.671,4.709,4.709,0,0,1-.38,1.914,2.552,2.552,0,0,1-1.048,1.139,3.372,3.372,0,0,1-1.656.38h-1.048l-.547-.076Zm-4.147,13.671h6.319v-.273H117.38V96.875h1.473a8.536,8.536,0,0,0,1.671-.167,6.319,6.319,0,0,0,1.519-.471,4.451,4.451,0,0,0,1.215-.76,3.038,3.038,0,0,0,.79-1.033,2.719,2.719,0,0,0,.289-1.276,3.038,3.038,0,0,0-.395-1.519,3.585,3.585,0,0,0-1.078-1.17,5.362,5.362,0,0,0-1.656-.759,7.473,7.473,0,0,0-2.066-.273h-5.894v.273h2.187v13.428h-2.187Zm-7.595,0h6.334v-.273h-2.157v-13.4H112v-.273h-6.349v.273h2.187v13.428h-2.187Zm-16.056,0h6.349v-.273H93.759v-6.7h6.532v6.729H98.058v.273h6.38v-.273h-2.172V89.918h2.172v-.273h-6.38v.273h2.172v6.425H93.7V89.918h2.233v-.273H89.613v.273H91.8v13.428H89.613Zm-12.152,0h.289a.264.264,0,0,1,.106-.213.349.349,0,0,1,.182-.152.608.608,0,0,1,.3,0,2.355,2.355,0,0,1,.516,0,4.021,4.021,0,0,1,.562.182l.547.167.623.152a3.419,3.419,0,0,0,.547.091h1.306a6.075,6.075,0,0,0,2.1-.38,4.679,4.679,0,0,0,1.519-1.033,4.557,4.557,0,0,0,1.4-3.114,3.676,3.676,0,0,0-.3-1.322,2.886,2.886,0,0,0-.653-.957,3.783,3.783,0,0,0-.851-.638,6.165,6.165,0,0,0-.881-.38l-.714-.243-2.385-.82c-.334-.106-.684-.228-1.018-.365a4.678,4.678,0,0,1-.9-.5,2.233,2.233,0,0,1-.653-.759,2.081,2.081,0,0,1-.258-1.063,2.628,2.628,0,0,1,.213-1.078,2.2,2.2,0,0,1,.562-.76,2.613,2.613,0,0,1,.775-.5,4.753,4.753,0,0,1,.866-.273,5.316,5.316,0,0,1,.82,0,3.524,3.524,0,0,1,1.519.3,3.4,3.4,0,0,1,1.094.805,4.557,4.557,0,0,1,.744,1.154A7.046,7.046,0,0,1,85.8,93.26h.228V89.645h-.273a1.793,1.793,0,0,1-.167.273.425.425,0,0,1-.167.122h-.258a1.292,1.292,0,0,1-.532-.122l-.592-.258a4.557,4.557,0,0,0-.805-.258,4.981,4.981,0,0,0-1.154-.122,4.876,4.876,0,0,0-1.732.3,4.208,4.208,0,0,0-1.367.866,3.889,3.889,0,0,0-.881,1.306,4.162,4.162,0,0,0-.349,1.656,3.16,3.16,0,0,0,.365,1.519,3.3,3.3,0,0,0,1.078,1.124,6.881,6.881,0,0,0,1.777.79l2.263.684a5.605,5.605,0,0,1,.866.334,4.436,4.436,0,0,1,.866.562,2.719,2.719,0,0,1,.638.835,2.552,2.552,0,0,1,.258,1.17,3.978,3.978,0,0,1-.091.82,3.038,3.038,0,0,1-.334.851,2.689,2.689,0,0,1-.623.759,3.159,3.159,0,0,1-1,.547,4.345,4.345,0,0,1-1.428.213,7.278,7.278,0,0,1-.79,0,3.614,3.614,0,0,1-.881-.122,3.327,3.327,0,0,1-.911-.38,3.387,3.387,0,0,1-.866-.714,5.256,5.256,0,0,1-.759-1.2,9.645,9.645,0,0,1-.562-1.716H77.4Z" transform="translate(38.651 -33.989)" fill="#fff"/>
  <path id="Path_203" data-name="Path 203" d="M57.628,56.875c-3.175,0-6.623-3.995-15.372-3.995a24.79,24.79,0,0,0-24.3,20.658H2.413v2.1s2.582,0,2.582,3.144S1,85.417,1,94.151a24.82,24.82,0,0,0,20.643,24.3v15.478h2.142s0-2.582,3.159-2.582,6.623,3.995,15.357,3.995a24.805,24.805,0,0,0,24.3-20.628H82.114v-2.035s-2.582,0-2.582-3.159,3.995-6.623,3.995-15.372a24.82,24.82,0,0,0-20.643-24.38V54.293h-2.1s0,2.582-3.159,2.582M2.4,94.151A15.57,15.57,0,0,1,17.481,78.429c.091,9.995,6.911,18.425,15.19,22.056a15.19,15.19,0,0,1-9.965,8.78C11.147,112.789,2.4,103.189,2.4,94.151m39.858-6.592a6.592,6.592,0,1,1-6.577,6.592,6.592,6.592,0,0,1,6.577-6.592m15.19,26.157c3.524,11.559-6.076,20.294-15.114,20.294A15.57,15.57,0,0,1,26.61,118.926c9.995,0,18.441-6.9,22.071-15.19a15.19,15.19,0,0,1,8.765,9.949M82.205,94.121a15.57,15.57,0,0,1-15.084,15.737c0-9.995-6.9-18.44-15.19-22.086a15.1,15.1,0,0,1,9.934-8.749c11.559-3.539,20.294,6.076,20.294,15.1M57.992,69.376c-9.995,0-18.425,6.9-22.056,15.19a15.084,15.084,0,0,1-8.78-9.949c-3.524-11.559,6.076-20.294,15.1-20.294a15.57,15.57,0,0,1,15.737,15.1" transform="translate(-1 -52.88)" fill="#fff"/>
</svg>
