<svg id="logo-3" xmlns="http://www.w3.org/2000/svg" width="235.025" height="67.361" viewBox="0 0 235.025 67.361">
  <g id="Group_99" data-name="Group 99">
    <path id="Path_204" data-name="Path 204" d="M43.638,13.465H70.5V0H0V40.431H13.433V13.465H26.862V40.431H40.292V53.9H0V67.362H70.5V26.927H57.068V53.9H43.638V26.927H30.205V13.465Z" fill="#fff"/>
  </g>
  <g id="Group_100" data-name="Group 100" transform="translate(85.029 57.236)">
    <path id="Path_205" data-name="Path 205" d="M242.961,164.7a1.7,1.7,0,0,1-.351,1.074,2.2,2.2,0,0,1-.977.694,3.989,3.989,0,0,1-1.439.24c-.15,0-.336-.007-.558-.025a7.09,7.09,0,0,1-.873-.147,6.963,6.963,0,0,1-1.135-.354v-1.621a8.047,8.047,0,0,0,1.088.515,3.174,3.174,0,0,0,1.145.2,1.091,1.091,0,0,0,.73-.168.475.475,0,0,0,.165-.319.532.532,0,0,0-.286-.451,4.174,4.174,0,0,0-.827-.379,7.107,7.107,0,0,1-1.056-.5,2.4,2.4,0,0,1-.741-.676,1.633,1.633,0,0,1-.286-.959,1.7,1.7,0,0,1,.29-.966,2,2,0,0,1,.884-.691,3.659,3.659,0,0,1,1.457-.258,5.6,5.6,0,0,1,1.131.107,5.322,5.322,0,0,1,.855.24,3.041,3.041,0,0,1,.462.211v1.55a5.944,5.944,0,0,0-1-.519,3.016,3.016,0,0,0-1.178-.229,1,1,0,0,0-.6.143.438.438,0,0,0-.183.354.427.427,0,0,0,.183.34,3.5,3.5,0,0,0,.659.351,14.615,14.615,0,0,1,1.349.644,2.587,2.587,0,0,1,.791.662,1.416,1.416,0,0,1,.3.931" transform="translate(-237.56 -159.91)" fill="#fff"/>
    <path id="Path_206" data-name="Path 206" d="M296.864,166.7H294.62v-2.638h-3.382V166.7H288.99V159.95h2.248v2.48h3.382v-2.48h2.244Z" transform="translate(-270.582 -159.936)" fill="#fff"/>
    <rect id="Rectangle_147" data-name="Rectangle 147" width="2.244" height="6.75" transform="translate(39.408 0.018)" fill="#fff"/>
    <path id="Path_207" data-name="Path 207" d="M397.031,162.076a1.94,1.94,0,0,1-.143.734,1.882,1.882,0,0,1-.462.666,2.31,2.31,0,0,1-.859.5,3.786,3.786,0,0,1-1.274.193h-1.475V166.7H390.57V159.95h3.722a3.709,3.709,0,0,1,1.274.2,2.318,2.318,0,0,1,.859.508,1.967,1.967,0,0,1,.462.676,2.068,2.068,0,0,1,.143.744m-2.291.011a.685.685,0,0,0-.315-.659,2.511,2.511,0,0,0-1.127-.179h-.472v1.629h.483a4.359,4.359,0,0,0,.859-.064.725.725,0,0,0,.437-.236.777.777,0,0,0,.136-.49" transform="translate(-335.804 -159.936)" fill="#fff"/>
    <path id="Path_208" data-name="Path 208" d="M453.413,159.95l-2.921,3.658v3.1h-2.248v-3.057l-2.974-3.7H447.6l1.711,2.126,1.718-2.126Z" transform="translate(-370.925 -159.936)" fill="#fff"/>
    <path id="Path_209" data-name="Path 209" d="M513.743,166.7h-2.305l-.608-1.371h-3.239l-.619,1.371h-2.3l3.3-6.754h2.484Zm-3.429-2.541-1.092-2.466-1.1,2.466Z" transform="translate(-409.064 -159.936)" fill="#fff"/>
    <path id="Path_210" data-name="Path 210" d="M573.886,166.7H571.47l-.587-1.2a4.969,4.969,0,0,0-.58-.963,1.235,1.235,0,0,0-.5-.39,1.946,1.946,0,0,0-.633-.086h-.251V166.7H566.67V159.95H570.5a3.034,3.034,0,0,1,1.518.34,2.156,2.156,0,0,1,.852.827,1.954,1.954,0,0,1,.261.927,1.613,1.613,0,0,1-.218.866,1.65,1.65,0,0,1-.458.515,4.538,4.538,0,0,1-.544.308,2.083,2.083,0,0,1,.594.451,5.5,5.5,0,0,1,.637,1.056Zm-3.053-4.617a.677.677,0,0,0-.34-.651,2.4,2.4,0,0,0-1.1-.186h-.472v1.629h.483a2.624,2.624,0,0,0,1.128-.165.646.646,0,0,0,.3-.626" transform="translate(-448.873 -159.936)" fill="#fff"/>
    <path id="Path_211" data-name="Path 211" d="M631.043,163.447a3.234,3.234,0,0,1-.376,1.668,3.585,3.585,0,0,1-.884,1.02,3.187,3.187,0,0,1-2.019.573H623.77V159.95h3.161a7.7,7.7,0,0,1,1.077.064,4.443,4.443,0,0,1,.805.186,2.946,2.946,0,0,1,.608.268,3.283,3.283,0,0,1,1.052.984,3.267,3.267,0,0,1,.412.895,3.593,3.593,0,0,1,.157,1.1m-2.43-.086a2.273,2.273,0,0,0-.311-1.285,1.546,1.546,0,0,0-.752-.619,2.663,2.663,0,0,0-.895-.157h-.863v4h.863a2.444,2.444,0,0,0,1.374-.379,1.736,1.736,0,0,0,.583-1.561" transform="translate(-485.536 -159.936)" fill="#fff"/>
  </g>
  <g id="Group_102" data-name="Group 102" transform="translate(73.851 16.565)">
    <g id="Group_101" data-name="Group 101">
      <path id="Path_212" data-name="Path 212" d="M224.409,53.51v30.1h-8.393V53.51H206.33V46.28h27.761v7.23Z" transform="translate(-206.33 -46.28)" fill="#fff"/>
      <path id="Path_213" data-name="Path 213" d="M497.436,70.349h7.921V98.464h-7.921V94.828a10.835,10.835,0,0,1-2.273,2.434,10.993,10.993,0,0,1-2.337,1.364,8.563,8.563,0,0,1-2.208.619,15.042,15.042,0,0,1-1.818.129,14.3,14.3,0,0,1-5.877-1.17,13.541,13.541,0,0,1-4.513-3.214,14.628,14.628,0,0,1-2.921-4.771,16.315,16.315,0,0,1-1.038-5.845,16.7,16.7,0,0,1,1.006-5.845,14.17,14.17,0,0,1,2.856-4.739,13.43,13.43,0,0,1,10.1-4.349,17.491,17.491,0,0,1,1.915.129,10.872,10.872,0,0,1,2.4.583,9.829,9.829,0,0,1,2.5,1.364,8.821,8.821,0,0,1,2.208,2.466V70.349Zm-7.015,6.1a7.828,7.828,0,0,0-3.118.616,7.546,7.546,0,0,0-2.466,1.689,7.885,7.885,0,0,0-1.625,2.5,8.139,8.139,0,0,0-.583,3.118,8.383,8.383,0,0,0,.583,3.15,7.663,7.663,0,0,0,1.625,2.531,7.545,7.545,0,0,0,2.466,1.689,8.2,8.2,0,0,0,6.235,0A7.545,7.545,0,0,0,496,90.053a7.654,7.654,0,0,0,1.621-2.531,8.383,8.383,0,0,0,.583-3.15,8.151,8.151,0,0,0-.583-3.118,7.8,7.8,0,0,0-1.621-2.5,7.621,7.621,0,0,0-2.466-1.689,7.828,7.828,0,0,0-3.118-.616" transform="translate(-378.483 -61.15)" fill="#fff"/>
      <path id="Path_214" data-name="Path 214" d="M294.288,92.568a23.168,23.168,0,0,1-1.1,2.169,11.57,11.57,0,0,1-2.327,2.831,13.915,13.915,0,0,1-3.962,2.452,15.283,15.283,0,0,1-6,1.038,16.828,16.828,0,0,1-5.877-.945,13.9,13.9,0,0,1-7.831-7.67,16.334,16.334,0,0,1-1.006-5.849,14.27,14.27,0,0,1,1.353-6.665,16.4,16.4,0,0,1,2.8-4.023,11.936,11.936,0,0,1,5.093-3.082,19.111,19.111,0,0,1,5.154-.755,13.843,13.843,0,0,1,6.665,1.382,14.012,14.012,0,0,1,3.962,3.082,13.241,13.241,0,0,1,1.729,2.735,15.333,15.333,0,0,1,1.006,2.8,16.065,16.065,0,0,1,.44,2.706c.064.881.093,1.7.093,2.452v.63H274.1a9.888,9.888,0,0,0,.315,2.484,5.6,5.6,0,0,0,1.006,2.108,7,7,0,0,0,1.947,1.729,6.444,6.444,0,0,0,3.522.848,7.015,7.015,0,0,0,6.353-3.583Zm-7.044-9.617a6.063,6.063,0,0,0-2.423-4.152,7.031,7.031,0,0,0-4.055-1.321,6.777,6.777,0,0,0-4.023,1.353,6.185,6.185,0,0,0-2.391,4.12Z" transform="translate(-244.758 -62.839)" fill="#fff"/>
      <path id="Path_215" data-name="Path 215" d="M354.57,70.459h7.914v4.224a8.527,8.527,0,0,1,1.979-2.727,12.67,12.67,0,0,1,1.525-1.17,8.537,8.537,0,0,1,4.671-1.235,8,8,0,0,1,1.847.193,14.171,14.171,0,0,1,1.525.455L372.992,77.6a6.254,6.254,0,0,0-1.621-.78,7.2,7.2,0,0,0-2.076-.258,10.4,10.4,0,0,0-2.595.39,5,5,0,0,0-2.659,1.883,6.4,6.4,0,0,0-1.331,3.085,22.844,22.844,0,0,0-.225,3.15V98.549H354.57Z" transform="translate(-301.511 -61.221)" fill="#fff"/>
      <path id="Path_216" data-name="Path 216" d="M423.8,77.149a6.245,6.245,0,0,0-2.677-1.586,9.326,9.326,0,0,0-1.9-.29,3.608,3.608,0,0,0-2.226.616,1.971,1.971,0,0,0-.805,1.65,2.685,2.685,0,0,0,.419,1.26,3.527,3.527,0,0,0,2.1,1.263l1.872.583c.558.172,1.163.379,1.807.616a19.688,19.688,0,0,1,1.936.841,16.438,16.438,0,0,1,1.872,1.1,5.646,5.646,0,0,1,1.485,1.457,7.694,7.694,0,0,1,1.034,2.1,8.268,8.268,0,0,1,.387,2.556,10.31,10.31,0,0,1-.709,3.722,9.131,9.131,0,0,1-2.391,3.4,10.558,10.558,0,0,1-3.744,2.266,14.28,14.28,0,0,1-4.649.712,15.336,15.336,0,0,1-3.9-.455,13.652,13.652,0,0,1-5.326-2.684,15.869,15.869,0,0,1-1.614-1.521l4.134-4.789a10.531,10.531,0,0,0,2.81,2.3,6.754,6.754,0,0,0,3.39.938,4.688,4.688,0,0,0,2.777-.777,2.608,2.608,0,0,0,1.1-2.266,2.206,2.206,0,0,0-.838-1.908,8.084,8.084,0,0,0-1.614-.938l-1.808-.648a29.941,29.941,0,0,1-3.1-1.292,10.5,10.5,0,0,1-2.906-2.072,8.335,8.335,0,0,1-1.55-2.362,7.452,7.452,0,0,1-.58-3.01,7.875,7.875,0,0,1,.841-3.69,8.564,8.564,0,0,1,2.065-2.652,8.334,8.334,0,0,1,3.647-1.65,20.72,20.72,0,0,1,3.651-.354,19.941,19.941,0,0,1,3.9.487,12.758,12.758,0,0,1,5,2.491Z" transform="translate(-335.021 -61.247)" fill="#fff"/>
      <path id="Path_217" data-name="Path 217" d="M570.14,70.459h7.917v3.633a17.447,17.447,0,0,1,1.364-1.589,9.013,9.013,0,0,1,1.85-1.46,10.967,10.967,0,0,1,2.434-1.07,10.363,10.363,0,0,1,3.049-.422,15.531,15.531,0,0,1,4.249.68,8.028,8.028,0,0,1,4.055,2.756,8.308,8.308,0,0,1,1.85,3.826,23.545,23.545,0,0,1,.358,4.088V98.549h-7.921V83.241a20.182,20.182,0,0,0-.229-2.788,4.839,4.839,0,0,0-1.263-2.724,3.791,3.791,0,0,0-2.012-1.2,9.181,9.181,0,0,0-1.686-.225,6.2,6.2,0,0,0-2.756.583,5.558,5.558,0,0,0-2.108,1.883,6.3,6.3,0,0,0-1.07,2.788,23.844,23.844,0,0,0-.161,2.659V98.556h-7.917v-28.1Z" transform="translate(-439.923 -61.221)" fill="#fff"/>
    </g>
    <path id="Path_218" data-name="Path 218" d="M643.69,68.811a2.82,2.82,0,1,1,2.82-2.82,2.826,2.826,0,0,1-2.82,2.82m0-5.19a2.373,2.373,0,1,0,2.373,2.373,2.376,2.376,0,0,0-2.373-2.373" transform="translate(-485.337 -57.125)" fill="#fff"/>
    <path id="Path_219" data-name="Path 219" d="M645.53,70.019V67.41h1.156a1.54,1.54,0,0,1,.53.072.572.572,0,0,1,.29.247.747.747,0,0,1,.107.394.666.666,0,0,1-.179.469.921.921,0,0,1-.555.243.8.8,0,0,1,.208.129,1.784,1.784,0,0,1,.286.347l.455.709h-.433l-.344-.54c-.1-.157-.183-.276-.251-.362a.8.8,0,0,0-.175-.175.468.468,0,0,0-.157-.068,1.213,1.213,0,0,0-.193-.011h-.4v1.156Zm.347-1.457h.741a1.014,1.014,0,0,0,.369-.05.411.411,0,0,0,.2-.157.419.419,0,0,0,.068-.233.392.392,0,0,0-.136-.3.631.631,0,0,0-.426-.118h-.823v.863Z" transform="translate(-488.329 -59.847)" fill="#fff"/>
  </g>
</svg>
