<svg xmlns="http://www.w3.org/2000/svg" xmlns:xlink="http://www.w3.org/1999/xlink" width="577.543" height="588.802" viewBox="0 0 577.543 588.802">
  <defs>
    <clipPath id="clip-path">
      <rect id="Rectangle_120" data-name="Rectangle 120" width="577.543" height="588.802" fill="#d9d9d9"/>
    </clipPath>
  </defs>
  <g id="Group_79" data-name="Group 79" clip-path="url(#clip-path)">
    <path id="Path_42" data-name="Path 42" d="M68.974,34.407A34.487,34.487,0,1,1,34.487,0,34.446,34.446,0,0,1,68.974,34.407" transform="translate(261.107 256.009)" fill="#d9d9d9"/>
    <path id="Path_43" data-name="Path 43" d="M85.562,170.723A85.362,85.362,0,1,1,171.124,85.36a85.559,85.559,0,0,1-85.562,85.363m0-169.48A84.118,84.118,0,1,0,169.878,85.36,84.312,84.312,0,0,0,85.562,1.243" transform="translate(210.234 205.079)" fill="#d9d9d9"/>
    <path id="Path_44" data-name="Path 44" d="M100.126,199.78C44.916,199.78,0,154.969,0,99.889S44.916,0,100.126,0,200.251,44.81,200.251,99.889,155.334,199.78,100.126,199.78m0-193.941c-51.982,0-94.273,42.191-94.273,94.05s42.291,94.052,94.273,94.052S194.4,151.75,194.4,99.889s-42.29-94.05-94.272-94.05" transform="translate(195.67 190.55)" fill="#d9d9d9"/>
    <path id="Path_45" data-name="Path 45" d="M231.911,462.732A231.366,231.366,0,1,1,395.9,67.766,231.366,231.366,0,0,1,231.911,462.732m0-458.585A227.22,227.22,0,1,0,392.956,392.035,227.22,227.22,0,0,0,231.911,4.147" transform="translate(63.885 62.201)" fill="#d9d9d9"/>
    <rect id="Rectangle_64" data-name="Rectangle 64" width="3.557" height="27.428" transform="translate(294.017 36.847)" fill="#d9d9d9"/>
    <rect id="Rectangle_65" data-name="Rectangle 65" width="3.557" height="27.428" transform="translate(294.017 522.859)" fill="#d9d9d9"/>
    <rect id="Rectangle_66" data-name="Rectangle 66" width="2.77" height="16.643" transform="translate(251.625 51.61) rotate(-10.024)" fill="#d9d9d9"/>
    <rect id="Rectangle_67" data-name="Rectangle 67" width="2.771" height="16.643" transform="translate(334.342 519.618) rotate(-10.021)" fill="#d9d9d9"/>
    <path id="Path_46" data-name="Path 46" d="M5.705,16.584,0,.946,2.6,0,8.309,15.639Z" transform="translate(210.182 61.992)" fill="#d9d9d9"/>
    <path id="Path_47" data-name="Path 47" d="M5.705,16.583,0,.946,2.6,0,8.309,15.638Z" transform="translate(373.101 508.561)" fill="#d9d9d9"/>
    <path id="Path_48" data-name="Path 48" d="M8.341,15.794,0,1.382,2.4,0,10.74,14.413Z" transform="translate(171.34 79.892)" fill="#d9d9d9"/>
    <path id="Path_49" data-name="Path 49" d="M8.341,15.794,0,1.382,2.4,0l8.341,14.412Z" transform="translate(409.513 491.451)" fill="#d9d9d9"/>
    <path id="Path_50" data-name="Path 50" d="M10.723,14.526,0,1.777,2.123,0,12.846,12.749Z" transform="translate(136.28 104.282)" fill="#d9d9d9"/>
    <path id="Path_51" data-name="Path 51" d="M10.722,14.526,0,1.777,2.122,0,12.845,12.749Z" transform="translate(442.468 468.328)" fill="#d9d9d9"/>
    <path id="Path_52" data-name="Path 52" d="M12.78,12.815,0,2.118,1.782,0,14.561,10.7Z" transform="translate(106.066 134.426)" fill="#d9d9d9"/>
    <path id="Path_53" data-name="Path 53" d="M12.779,12.816,0,2.118,1.782,0,14.56,10.7Z" transform="translate(470.967 439.895)" fill="#d9d9d9"/>
    <path id="Path_54" data-name="Path 54" d="M14.447,10.715,0,2.394,1.385,0,15.833,8.322Z" transform="translate(81.618 169.403)" fill="#d9d9d9"/>
    <path id="Path_55" data-name="Path 55" d="M14.446,10.715,0,2.394,1.385,0,15.831,8.321Z" transform="translate(494.146 407.017)" fill="#d9d9d9"/>
    <path id="Path_56" data-name="Path 56" d="M15.676,8.288,0,2.6.947,0,16.623,5.691Z" transform="translate(63.678 208.154)" fill="#d9d9d9"/>
    <path id="Path_57" data-name="Path 57" d="M15.675,8.29,0,2.6.948,0,16.623,5.692Z" transform="translate(511.295 370.691)" fill="#d9d9d9"/>
    <rect id="Rectangle_68" data-name="Rectangle 68" width="2.765" height="16.68" transform="translate(52.791 252.224) rotate(-80.032)" fill="#d9d9d9"/>
    <rect id="Rectangle_69" data-name="Rectangle 69" width="2.764" height="16.68" transform="translate(521.9 334.745) rotate(-80.025)" fill="#d9d9d9"/>
    <rect id="Rectangle_70" data-name="Rectangle 70" width="27.493" height="3.549" transform="translate(38.474 291.792)" fill="#d9d9d9"/>
    <rect id="Rectangle_71" data-name="Rectangle 71" width="27.492" height="3.549" transform="translate(525.632 291.793)" fill="#d9d9d9"/>
    <rect id="Rectangle_72" data-name="Rectangle 72" width="16.68" height="2.765" transform="matrix(0.985, -0.174, 0.174, 0.985, 52.791, 334.916)" fill="#d9d9d9"/>
    <rect id="Rectangle_73" data-name="Rectangle 73" width="16.68" height="2.764" transform="translate(521.9 252.394) rotate(-10.014)" fill="#d9d9d9"/>
    <path id="Path_58" data-name="Path 58" d="M.948,8.291,0,5.693,15.675,0l.948,2.6Z" transform="translate(63.679 370.689)" fill="#d9d9d9"/>
    <path id="Path_59" data-name="Path 59" d="M.948,8.29,0,5.692,15.675,0l.948,2.6Z" transform="translate(511.296 208.153)" fill="#d9d9d9"/>
    <path id="Path_60" data-name="Path 60" d="M1.385,10.715,0,8.321,14.446,0l1.385,2.394Z" transform="translate(81.62 407.015)" fill="#d9d9d9"/>
    <path id="Path_61" data-name="Path 61" d="M1.385,10.715,0,8.321,14.446,0l1.385,2.394Z" transform="translate(494.146 169.401)" fill="#d9d9d9"/>
    <path id="Path_62" data-name="Path 62" d="M1.781,12.815,0,10.7,12.778,0l1.781,2.118Z" transform="translate(106.069 439.892)" fill="#d9d9d9"/>
    <path id="Path_63" data-name="Path 63" d="M1.781,12.815,0,10.7,12.778,0,14.56,2.118Z" transform="translate(470.97 134.422)" fill="#d9d9d9"/>
    <path id="Path_64" data-name="Path 64" d="M2.122,14.528,0,12.751,10.722,0l2.122,1.777Z" transform="translate(136.282 468.323)" fill="#d9d9d9"/>
    <path id="Path_65" data-name="Path 65" d="M2.122,14.526,0,12.749,10.722,0l2.122,1.777Z" transform="translate(442.47 104.278)" fill="#d9d9d9"/>
    <path id="Path_66" data-name="Path 66" d="M2.4,15.8,0,14.414,8.34,0l2.4,1.382Z" transform="translate(171.343 491.445)" fill="#d9d9d9"/>
    <path id="Path_67" data-name="Path 67" d="M2.4,15.792,0,14.41,8.34,0l2.4,1.382Z" transform="translate(409.515 79.888)" fill="#d9d9d9"/>
    <path id="Path_68" data-name="Path 68" d="M2.6,16.586,0,15.64,5.7,0l2.6.946Z" transform="translate(210.185 508.555)" fill="#d9d9d9"/>
    <path id="Path_69" data-name="Path 69" d="M2.6,16.581,0,15.636,5.7,0l2.6.946Z" transform="translate(373.103 61.989)" fill="#d9d9d9"/>
    <rect id="Rectangle_74" data-name="Rectangle 74" width="16.645" height="2.771" transform="translate(251.634 535.523) rotate(-80.024)" fill="#d9d9d9"/>
    <rect id="Rectangle_75" data-name="Rectangle 75" width="16.643" height="2.77" transform="matrix(0.173, -0.985, 0.985, 0.173, 334.349, 67.516)" fill="#d9d9d9"/>
    <rect id="Rectangle_76" data-name="Rectangle 76" width="1.186" height="8.225" transform="translate(286.844 54.772) rotate(-1.998)" fill="#d9d9d9"/>
    <rect id="Rectangle_77" data-name="Rectangle 77" width="1.186" height="8.225" transform="translate(303.275 524.184) rotate(-2.008)" fill="#d9d9d9"/>
    <rect id="Rectangle_78" data-name="Rectangle 78" width="1.186" height="8.224" transform="translate(278.496 55.23) rotate(-4.004)" fill="#d9d9d9"/>
    <rect id="Rectangle_79" data-name="Rectangle 79" width="1.186" height="8.224" transform="translate(311.337 523.784) rotate(-4.009)" fill="#d9d9d9"/>
    <rect id="Rectangle_80" data-name="Rectangle 80" width="1.185" height="8.223" transform="translate(270.169 55.978) rotate(-6.005)" fill="#d9d9d9"/>
    <rect id="Rectangle_81" data-name="Rectangle 81" width="1.185" height="8.225" transform="translate(319.381 523.103) rotate(-6.013)" fill="#d9d9d9"/>
    <rect id="Rectangle_82" data-name="Rectangle 82" width="1.186" height="8.223" transform="translate(261.874 57.015) rotate(-8.009)" fill="#d9d9d9"/>
    <rect id="Rectangle_83" data-name="Rectangle 83" width="1.186" height="8.227" transform="translate(327.395 522.141) rotate(-8.02)" fill="#d9d9d9"/>
    <path id="Path_70" data-name="Path 70" d="M1.714,8.29,0,.246,1.16,0,2.874,8.044Z" transform="translate(245.416 59.704)" fill="#d9d9d9"/>
    <rect id="Rectangle_84" data-name="Rectangle 84" width="1.186" height="8.225" transform="matrix(0.978, -0.208, 0.208, 0.978, 343.302, 519.387)" fill="#d9d9d9"/>
    <path id="Path_71" data-name="Path 71" d="M1.994,8.264,0,.286,1.151,0,3.144,7.978Z" transform="translate(237.275 61.562)" fill="#d9d9d9"/>
    <path id="Path_72" data-name="Path 72" d="M1.994,8.266,0,.286,1.151,0,3.145,7.98Z" transform="translate(351.172 517.308)" fill="#d9d9d9"/>
    <path id="Path_73" data-name="Path 73" d="M2.271,8.232,0,.326,1.14,0,3.412,7.906Z" transform="translate(229.204 63.7)" fill="#d9d9d9"/>
    <path id="Path_74" data-name="Path 74" d="M2.274,8.233,0,.326,1.14,0,3.414,7.907Z" transform="translate(358.975 515.203)" fill="#d9d9d9"/>
    <path id="Path_75" data-name="Path 75" d="M2.546,8.186,0,.365,1.128,0,3.673,7.821Z" transform="translate(221.215 66.121)" fill="#d9d9d9"/>
    <path id="Path_76" data-name="Path 76" d="M2.549,8.188,0,.366,1.128,0,3.676,7.823Z" transform="translate(366.701 512.828)" fill="#d9d9d9"/>
    <path id="Path_77" data-name="Path 77" d="M3.087,8.069,0,.443,1.1,0,4.187,7.626Z" transform="translate(205.52 71.784)" fill="#d9d9d9"/>
    <path id="Path_78" data-name="Path 78" d="M3.087,8.069,0,.443,1.1,0,4.187,7.626Z" transform="translate(381.887 507.282)" fill="#d9d9d9"/>
    <path id="Path_79" data-name="Path 79" d="M3.351,7.993,0,.481,1.083,0,4.435,7.512Z" transform="translate(197.832 75.026)" fill="#d9d9d9"/>
    <path id="Path_80" data-name="Path 80" d="M3.353,8,0,.481,1.083,0,4.435,7.514Z" transform="translate(389.325 504.115)" fill="#d9d9d9"/>
    <path id="Path_81" data-name="Path 81" d="M3.613,7.909,0,.518,1.066,0,4.679,7.391Z" transform="translate(190.263 78.533)" fill="#d9d9d9"/>
    <path id="Path_82" data-name="Path 82" d="M3.615,7.912,0,.519,1.066,0,4.681,7.393Z" transform="translate(396.65 500.692)" fill="#d9d9d9"/>
    <path id="Path_83" data-name="Path 83" d="M3.868,7.817,0,.556,1.047,0,4.915,7.261Z" transform="translate(182.824 82.301)" fill="#d9d9d9"/>
    <path id="Path_84" data-name="Path 84" d="M3.87,7.818,0,.555,1.047,0l3.87,7.262Z" transform="translate(403.852 497.018)" fill="#d9d9d9"/>
    <path id="Path_85" data-name="Path 85" d="M4.369,7.6,0,.627,1.007,0,5.375,6.976Z" transform="translate(168.365 90.603)" fill="#d9d9d9"/>
    <path id="Path_86" data-name="Path 86" d="M4.37,7.6,0,.627,1.006,0l4.37,6.976Z" transform="translate(417.853 488.93)" fill="#d9d9d9"/>
    <path id="Path_87" data-name="Path 87" d="M4.608,7.479,0,.662.983,0,5.591,6.817Z" transform="translate(161.366 95.13)" fill="#d9d9d9"/>
    <path id="Path_88" data-name="Path 88" d="M4.61,7.48,0,.661.983,0l4.61,6.818Z" transform="translate(424.636 484.526)" fill="#d9d9d9"/>
    <path id="Path_89" data-name="Path 89" d="M4.843,7.348,0,.695.959,0,5.8,6.653Z" transform="translate(154.529 99.897)" fill="#d9d9d9"/>
    <path id="Path_90" data-name="Path 90" d="M4.847,7.35,0,.7.959,0,5.806,6.654Z" transform="translate(431.259 479.89)" fill="#d9d9d9"/>
    <path id="Path_91" data-name="Path 91" d="M5.073,7.208,0,.728.934,0,6.008,6.48Z" transform="translate(147.864 104.9)" fill="#d9d9d9"/>
    <path id="Path_92" data-name="Path 92" d="M5.076,7.209,0,.728.935,0,6.01,6.481Z" transform="translate(437.72 475.027)" fill="#d9d9d9"/>
    <path id="Path_93" data-name="Path 93" d="M5.515,6.9,0,.791.881,0,6.4,6.112Z" transform="translate(135.084 115.588)" fill="#d9d9d9"/>
    <path id="Path_94" data-name="Path 94" d="M5.518,6.9,0,.792.881,0,6.4,6.112Z" transform="translate(450.113 464.643)" fill="#d9d9d9"/>
    <path id="Path_95" data-name="Path 95" d="M5.725,6.738,0,.822.853,0,6.578,5.916Z" transform="translate(128.984 121.262)" fill="#d9d9d9"/>
    <path id="Path_96" data-name="Path 96" d="M5.727,6.739,0,.822.853,0,6.581,5.917Z" transform="translate(456.031 459.134)" fill="#d9d9d9"/>
    <path id="Path_97" data-name="Path 97" d="M5.928,6.565,0,.851.824,0,6.751,5.713Z" transform="translate(123.087 127.146)" fill="#d9d9d9"/>
    <path id="Path_98" data-name="Path 98" d="M5.932,6.564,0,.851.824,0,6.755,5.713Z" transform="translate(461.753 453.426)" fill="#d9d9d9"/>
    <path id="Path_99" data-name="Path 99" d="M6.123,6.383,0,.878.793,0,6.917,5.5Z" transform="translate(117.401 133.232)" fill="#d9d9d9"/>
    <path id="Path_100" data-name="Path 100" d="M6.125,6.382,0,.88.793,0,6.918,5.5Z" transform="translate(467.275 447.521)" fill="#d9d9d9"/>
    <path id="Path_101" data-name="Path 101" d="M6.495,6,0,.932.729,0l6.5,5.064Z" transform="translate(106.686 145.982)" fill="#d9d9d9"/>
    <path id="Path_102" data-name="Path 102" d="M6.5,6,0,.932.729,0l6.5,5.063Z" transform="translate(477.684 435.158)" fill="#d9d9d9"/>
    <path id="Path_103" data-name="Path 103" d="M6.668,5.791,0,.957.7,0,7.365,4.834Z" transform="translate(101.671 152.631)" fill="#d9d9d9"/>
    <path id="Path_104" data-name="Path 104" d="M6.67,5.791,0,.957.7,0l6.67,4.834Z" transform="translate(482.558 428.713)" fill="#d9d9d9"/>
    <path id="Path_105" data-name="Path 105" d="M6.832,5.58,0,.98.664,0,7.5,4.6Z" transform="translate(96.892 159.452)" fill="#d9d9d9"/>
    <path id="Path_106" data-name="Path 106" d="M6.836,5.579,0,.982.663,0,7.5,4.6Z" transform="translate(487.205 422.104)" fill="#d9d9d9"/>
    <path id="Path_107" data-name="Path 107" d="M6.988,5.362,0,1,.628,0,7.616,4.359Z" transform="translate(92.356 166.436)" fill="#d9d9d9"/>
    <path id="Path_108" data-name="Path 108" d="M6.99,5.362,0,1,.628,0l6.99,4.359Z" transform="translate(491.621 415.338)" fill="#d9d9d9"/>
    <path id="Path_109" data-name="Path 109" d="M7.278,4.906,0,1.045.557,0,7.835,3.861Z" transform="translate(84.033 180.86)" fill="#d9d9d9"/>
    <path id="Path_110" data-name="Path 110" d="M7.28,4.905,0,1.045.556,0l7.28,3.861Z" transform="translate(499.728 401.37)" fill="#d9d9d9"/>
    <path id="Path_111" data-name="Path 111" d="M7.408,4.669,0,1.063.52,0,7.928,3.606Z" transform="translate(80.256 188.282)" fill="#d9d9d9"/>
    <path id="Path_112" data-name="Path 112" d="M7.411,4.67,0,1.064.52,0,7.931,3.606Z" transform="translate(503.411 394.183)" fill="#d9d9d9"/>
    <path id="Path_113" data-name="Path 113" d="M7.529,4.426,0,1.08.483,0,8.011,3.346Z" transform="translate(76.741 195.832)" fill="#d9d9d9"/>
    <path id="Path_114" data-name="Path 114" d="M7.532,4.426,0,1.081.483,0,8.014,3.344Z" transform="translate(506.842 386.876)" fill="#d9d9d9"/>
    <path id="Path_115" data-name="Path 115" d="M7.641,4.179,0,1.1.445,0,8.086,3.083Z" transform="translate(73.493 203.502)" fill="#d9d9d9"/>
    <path id="Path_116" data-name="Path 116" d="M7.642,4.179,0,1.1.444,0,8.087,3.083Z" transform="translate(510.016 379.454)" fill="#d9d9d9"/>
    <path id="Path_117" data-name="Path 117" d="M7.839,3.668,0,1.125.366,0,8.206,2.543Z" transform="translate(67.814 219.16)" fill="#d9d9d9"/>
    <path id="Path_118" data-name="Path 118" d="M7.841,3.666,0,1.125.367,0,8.207,2.541Z" transform="translate(515.576 364.307)" fill="#d9d9d9"/>
    <path id="Path_119" data-name="Path 119" d="M7.923,3.4,0,1.137.327,0,8.25,2.266Z" transform="translate(65.39 227.133)" fill="#d9d9d9"/>
    <path id="Path_120" data-name="Path 120" d="M7.925,3.405,0,1.137.327,0,8.252,2.268Z" transform="translate(517.956 356.597)" fill="#d9d9d9"/>
    <rect id="Rectangle_85" data-name="Rectangle 85" width="1.183" height="8.241" transform="translate(63.247 236.331) rotate(-76.025)" fill="#d9d9d9"/>
    <path id="Path_121" data-name="Path 121" d="M8,3.136,0,1.148.287,0l8,1.988Z" transform="translate(520.065 348.815)" fill="#d9d9d9"/>
    <rect id="Rectangle_86" data-name="Rectangle 86" width="1.184" height="8.241" transform="translate(61.386 244.464) rotate(-78.013)" fill="#d9d9d9"/>
    <rect id="Rectangle_87" data-name="Rectangle 87" width="1.184" height="8.244" transform="translate(521.9 342.117) rotate(-78.016)" fill="#d9d9d9"/>
    <rect id="Rectangle_88" data-name="Rectangle 88" width="1.183" height="8.243" transform="translate(58.523 260.896) rotate(-82.016)" fill="#d9d9d9"/>
    <rect id="Rectangle_89" data-name="Rectangle 89" width="1.183" height="8.243" transform="translate(524.747 326.264) rotate(-82.016)" fill="#d9d9d9"/>
    <rect id="Rectangle_90" data-name="Rectangle 90" width="1.183" height="8.242" transform="translate(57.525 269.176) rotate(-83.999)" fill="#d9d9d9"/>
    <rect id="Rectangle_91" data-name="Rectangle 91" width="1.183" height="8.243" transform="translate(525.75 318.272) rotate(-83.999)" fill="#d9d9d9"/>
    <rect id="Rectangle_92" data-name="Rectangle 92" width="1.183" height="8.242" transform="translate(56.818 277.488) rotate(-86.005)" fill="#d9d9d9"/>
    <rect id="Rectangle_93" data-name="Rectangle 93" width="1.183" height="8.243" transform="matrix(0.069, -0.998, 0.998, 0.069, 526.475, 310.252)" fill="#d9d9d9"/>
    <rect id="Rectangle_94" data-name="Rectangle 94" width="1.183" height="8.242" transform="matrix(0.035, -0.999, 0.999, 0.035, 56.4, 285.818)" fill="#d9d9d9"/>
    <rect id="Rectangle_95" data-name="Rectangle 95" width="1.183" height="8.243" transform="translate(526.917 302.211) rotate(-88.006)" fill="#d9d9d9"/>
    <rect id="Rectangle_96" data-name="Rectangle 96" width="8.244" height="1.183" transform="matrix(0.999, -0.035, 0.035, 0.999, 56.399, 301.315)" fill="#d9d9d9"/>
    <rect id="Rectangle_97" data-name="Rectangle 97" width="8.244" height="1.183" transform="matrix(0.999, -0.035, 0.035, 0.999, 526.917, 284.924)" fill="#d9d9d9"/>
    <rect id="Rectangle_98" data-name="Rectangle 98" width="8.243" height="1.183" transform="translate(56.817 309.646) rotate(-3.995)" fill="#d9d9d9"/>
    <rect id="Rectangle_99" data-name="Rectangle 99" width="8.245" height="1.183" transform="translate(526.473 276.881) rotate(-3.995)" fill="#d9d9d9"/>
    <rect id="Rectangle_100" data-name="Rectangle 100" width="8.242" height="1.183" transform="translate(57.526 317.958) rotate(-6.018)" fill="#d9d9d9"/>
    <rect id="Rectangle_101" data-name="Rectangle 101" width="8.245" height="1.183" transform="translate(525.75 268.865) rotate(-6.051)" fill="#d9d9d9"/>
    <rect id="Rectangle_102" data-name="Rectangle 102" width="8.242" height="1.183" transform="translate(58.524 326.24) rotate(-8.011)" fill="#d9d9d9"/>
    <rect id="Rectangle_103" data-name="Rectangle 103" width="8.243" height="1.183" transform="matrix(0.99, -0.139, 0.139, 0.99, 524.745, 260.87)" fill="#d9d9d9"/>
    <rect id="Rectangle_104" data-name="Rectangle 104" width="8.243" height="1.184" transform="translate(61.386 342.673) rotate(-12.027)" fill="#d9d9d9"/>
    <rect id="Rectangle_105" data-name="Rectangle 105" width="8.243" height="1.184" transform="translate(521.903 245.018) rotate(-12.027)" fill="#d9d9d9"/>
    <rect id="Rectangle_106" data-name="Rectangle 106" width="8.243" height="1.183" transform="translate(63.247 350.806) rotate(-14.028)" fill="#d9d9d9"/>
    <path id="Path_122" data-name="Path 122" d="M.287,3.136,0,1.988,8,0l.287,1.148Z" transform="translate(520.065 235.183)" fill="#d9d9d9"/>
    <path id="Path_123" data-name="Path 123" d="M.327,3.4,0,2.266,7.924,0l.327,1.137Z" transform="translate(65.39 356.597)" fill="#d9d9d9"/>
    <rect id="Rectangle_107" data-name="Rectangle 107" width="8.242" height="1.183" transform="translate(517.959 229.403) rotate(-16.037)" fill="#d9d9d9"/>
    <path id="Path_124" data-name="Path 124" d="M.366,3.665,0,2.539,7.839,0l.366,1.125Z" transform="translate(67.816 364.306)" fill="#d9d9d9"/>
    <path id="Path_125" data-name="Path 125" d="M.366,3.666,0,2.541,7.839,0l.366,1.125Z" transform="translate(515.576 219.16)" fill="#d9d9d9"/>
    <path id="Path_126" data-name="Path 126" d="M.445,4.178,0,3.081,7.644,0l.445,1.1Z" transform="translate(73.493 379.453)" fill="#d9d9d9"/>
    <path id="Path_127" data-name="Path 127" d="M.445,4.177,0,3.081,7.644,0l.445,1.1Z" transform="translate(510.016 203.501)" fill="#d9d9d9"/>
    <path id="Path_128" data-name="Path 128" d="M.482,4.426,0,3.346,7.53,0l.483,1.081Z" transform="translate(76.742 386.875)" fill="#d9d9d9"/>
    <path id="Path_129" data-name="Path 129" d="M.482,4.425,0,3.344,7.531,0l.483,1.081Z" transform="translate(506.843 195.832)" fill="#d9d9d9"/>
    <path id="Path_130" data-name="Path 130" d="M.52,4.668,0,3.6,7.409,0l.52,1.063Z" transform="translate(80.256 394.183)" fill="#d9d9d9"/>
    <path id="Path_131" data-name="Path 131" d="M.52,4.67,0,3.606,7.41,0l.52,1.063Z" transform="translate(503.413 188.28)" fill="#d9d9d9"/>
    <path id="Path_132" data-name="Path 132" d="M.557,4.9,0,3.859,7.278,0l.557,1.045Z" transform="translate(84.034 401.369)" fill="#d9d9d9"/>
    <path id="Path_133" data-name="Path 133" d="M.557,4.906,0,3.861,7.277,0l.556,1.045Z" transform="translate(499.729 180.858)" fill="#d9d9d9"/>
    <path id="Path_134" data-name="Path 134" d="M.628,5.361,0,4.357,6.992,0,7.62,1Z" transform="translate(92.356 415.336)" fill="#d9d9d9"/>
    <path id="Path_135" data-name="Path 135" d="M.628,5.363,0,4.359,6.992,0,7.62,1Z" transform="translate(491.621 166.432)" fill="#d9d9d9"/>
    <path id="Path_136" data-name="Path 136" d="M.663,5.578,0,4.6,6.834,0,7.5.98Z" transform="translate(96.893 422.103)" fill="#d9d9d9"/>
    <path id="Path_137" data-name="Path 137" d="M.663,5.58,0,4.6,6.836,0,7.5.98Z" transform="translate(487.205 159.45)" fill="#d9d9d9"/>
    <path id="Path_138" data-name="Path 138" d="M.7,5.791,0,4.834,6.669,0l.7.957Z" transform="translate(101.671 428.711)" fill="#d9d9d9"/>
    <path id="Path_139" data-name="Path 139" d="M.7,5.793,0,4.836,6.67,0l.7.957Z" transform="translate(482.56 152.629)" fill="#d9d9d9"/>
    <path id="Path_140" data-name="Path 140" d="M.73,5.994,0,5.062,6.5,0l.729.932Z" transform="translate(106.686 435.156)" fill="#d9d9d9"/>
    <path id="Path_141" data-name="Path 141" d="M.73,5.994,0,5.062,6.495,0l.729.932Z" transform="translate(477.685 145.981)" fill="#d9d9d9"/>
    <path id="Path_142" data-name="Path 142" d="M.793,6.383,0,5.5,6.126,0,6.92.879Z" transform="translate(117.401 447.518)" fill="#d9d9d9"/>
    <path id="Path_143" data-name="Path 143" d="M.794,6.383,0,5.5,6.126,0,6.92.879Z" transform="translate(467.276 133.228)" fill="#d9d9d9"/>
    <path id="Path_144" data-name="Path 144" d="M.824,6.563,0,5.711,5.931,0l.824.851Z" transform="translate(123.087 453.424)" fill="#d9d9d9"/>
    <path id="Path_145" data-name="Path 145" d="M.823,6.565,0,5.713,5.933,0l.823.851Z" transform="translate(461.754 127.142)" fill="#d9d9d9"/>
    <path id="Path_146" data-name="Path 146" d="M.853,6.738,0,5.916,5.726,0l.853.822Z" transform="translate(128.985 459.132)" fill="#d9d9d9"/>
    <path id="Path_147" data-name="Path 147" d="M.853,6.739,0,5.917,5.727,0,6.58.822Z" transform="translate(456.033 121.259)" fill="#d9d9d9"/>
    <path id="Path_148" data-name="Path 148" d="M.881,6.9,0,6.11,5.515,0,6.4.791Z" transform="translate(135.086 464.641)" fill="#d9d9d9"/>
    <path id="Path_149" data-name="Path 149" d="M.881,6.9,0,6.109,5.515,0,6.4.792Z" transform="translate(450.115 115.588)" fill="#d9d9d9"/>
    <path id="Path_150" data-name="Path 150" d="M.934,7.21,0,6.482,5.076,0l.934.729Z" transform="translate(147.865 475.023)" fill="#d9d9d9"/>
    <path id="Path_151" data-name="Path 151" d="M.935,7.209,0,6.481,5.076,0,6.01.728Z" transform="translate(437.722 104.895)" fill="#d9d9d9"/>
    <path id="Path_152" data-name="Path 152" d="M.959,7.348,0,6.653,4.846,0l.959.7Z" transform="translate(154.53 479.888)" fill="#d9d9d9"/>
    <path id="Path_153" data-name="Path 153" d="M.959,7.35,0,6.654,4.848,0l.959.7Z" transform="translate(431.259 99.893)" fill="#d9d9d9"/>
    <path id="Path_154" data-name="Path 154" d="M.983,7.478,0,6.816,4.61,0l.983.661Z" transform="translate(161.367 484.525)" fill="#d9d9d9"/>
    <path id="Path_155" data-name="Path 155" d="M.983,7.482,0,6.82,4.609,0l.984.662Z" transform="translate(424.638 95.125)" fill="#d9d9d9"/>
    <path id="Path_156" data-name="Path 156" d="M1.006,7.6,0,6.974,4.369,0,5.375.627Z" transform="translate(168.368 488.928)" fill="#d9d9d9"/>
    <path id="Path_157" data-name="Path 157" d="M1.005,7.6,0,6.972,4.368,0,5.374.627Z" transform="translate(417.855 90.602)" fill="#d9d9d9"/>
    <path id="Path_158" data-name="Path 158" d="M1.047,7.818,0,7.262,3.871,0,4.918.555Z" transform="translate(182.824 497.014)" fill="#d9d9d9"/>
    <path id="Path_159" data-name="Path 159" d="M1.047,7.819,0,7.263,3.87,0,4.917.556Z" transform="translate(403.854 82.295)" fill="#d9d9d9"/>
    <path id="Path_160" data-name="Path 160" d="M1.066,7.91,0,7.391,3.614,0,4.68.519Z" transform="translate(190.265 500.691)" fill="#d9d9d9"/>
    <path id="Path_161" data-name="Path 161" d="M1.065,7.914,0,7.395,3.617,0,4.682.519Z" transform="translate(396.65 78.527)" fill="#d9d9d9"/>
    <path id="Path_162" data-name="Path 162" d="M1.083,7.993,0,7.512,3.353,0,4.435.481Z" transform="translate(197.834 504.114)" fill="#d9d9d9"/>
    <path id="Path_163" data-name="Path 163" d="M1.083,8,0,7.514,3.352,0,4.435.481Z" transform="translate(389.328 75.021)" fill="#d9d9d9"/>
    <path id="Path_164" data-name="Path 164" d="M1.1,8.067,0,7.624,3.088,0l1.1.443Z" transform="translate(205.522 507.28)" fill="#d9d9d9"/>
    <path id="Path_165" data-name="Path 165" d="M1.1,8.065,0,7.622,3.089,0l1.1.443Z" transform="translate(381.886 71.784)" fill="#d9d9d9"/>
    <path id="Path_166" data-name="Path 166" d="M1.128,8.189,0,7.823,2.548,0,3.676.366Z" transform="translate(221.216 512.825)" fill="#d9d9d9"/>
    <path id="Path_167" data-name="Path 167" d="M1.128,8.188,0,7.823,2.548,0,3.676.366Z" transform="translate(366.703 66.114)" fill="#d9d9d9"/>
    <path id="Path_168" data-name="Path 168" d="M1.14,8.231,0,7.905,2.273,0,3.412.326Z" transform="translate(229.206 515.201)" fill="#d9d9d9"/>
    <path id="Path_169" data-name="Path 169" d="M1.14,8.234,0,7.907,2.273,0l1.14.326Z" transform="translate(358.976 63.696)" fill="#d9d9d9"/>
    <path id="Path_170" data-name="Path 170" d="M1.151,8.266,0,7.98,1.994,0,3.145.286Z" transform="translate(237.277 517.305)" fill="#d9d9d9"/>
    <path id="Path_171" data-name="Path 171" d="M1.151,8.267,0,7.981,1.994,0,3.145.286Z" transform="translate(351.175 61.557)" fill="#d9d9d9"/>
    <rect id="Rectangle_108" data-name="Rectangle 108" width="8.223" height="1.186" transform="translate(245.421 527.179) rotate(-78.001)" fill="#d9d9d9"/>
    <rect id="Rectangle_109" data-name="Rectangle 109" width="8.222" height="1.186" transform="translate(343.305 67.746) rotate(-78)" fill="#d9d9d9"/>
    <rect id="Rectangle_110" data-name="Rectangle 110" width="8.226" height="1.186" transform="translate(261.877 530.118) rotate(-82.007)" fill="#d9d9d9"/>
    <rect id="Rectangle_111" data-name="Rectangle 111" width="8.226" height="1.186" transform="matrix(0.139, -0.99, 0.99, 0.139, 327.4, 64.991)" fill="#d9d9d9"/>
    <rect id="Rectangle_112" data-name="Rectangle 112" width="8.225" height="1.186" transform="matrix(0.104, -0.995, 0.995, 0.104, 270.174, 531.156)" fill="#d9d9d9"/>
    <rect id="Rectangle_113" data-name="Rectangle 113" width="8.227" height="1.185" transform="translate(319.386 64.031) rotate(-84.03)" fill="#d9d9d9"/>
    <rect id="Rectangle_114" data-name="Rectangle 114" width="8.224" height="1.186" transform="translate(278.5 531.902) rotate(-86.014)" fill="#d9d9d9"/>
    <rect id="Rectangle_115" data-name="Rectangle 115" width="8.226" height="1.186" transform="translate(311.341 63.347) rotate(-86.014)" fill="#d9d9d9"/>
    <rect id="Rectangle_116" data-name="Rectangle 116" width="8.222" height="1.186" transform="translate(286.849 532.358) rotate(-88.025)" fill="#d9d9d9"/>
    <rect id="Rectangle_117" data-name="Rectangle 117" width="8.223" height="1.186" transform="translate(303.276 62.947) rotate(-87.992)" fill="#d9d9d9"/>
    <path id="Path_172" data-name="Path 172" d="M258.71,516.207A257.881,257.881,0,1,1,497.089,157.638,258.275,258.275,0,0,1,258.71,516.207m0-513.441A255.119,255.119,0,1,0,494.537,357.493,255.508,255.508,0,0,0,258.71,2.765" transform="translate(37.088 35.464)" fill="#d9d9d9"/>
    <path id="Path_173" data-name="Path 173" d="M157.958,314.978h-.1c-1.495,0-3.006-.021-4.49-.062a1.893,1.893,0,1,1,.107-3.784c1.449.04,2.924.061,4.383.061h.1a1.892,1.892,0,1,1,0,3.785m9.066-.265a1.892,1.892,0,0,1-.108-3.781c1.484-.086,2.989-.195,4.469-.323a1.892,1.892,0,1,1,.329,3.77c-1.517.132-3.058.242-4.579.331l-.111,0m-22.654-.31c-.053,0-.108,0-.163-.006-1.523-.131-3.059-.285-4.567-.458a1.892,1.892,0,1,1,.433-3.759c1.472.168,2.972.319,4.458.445a1.892,1.892,0,0,1-.161,3.778m36.185-1.061a1.892,1.892,0,0,1-.272-3.765c1.468-.213,2.956-.452,4.423-.709a1.893,1.893,0,1,1,.658,3.727c-1.5.264-3.03.508-4.534.727a1.962,1.962,0,0,1-.276.02m-49.672-.684a1.95,1.95,0,0,1-.328-.028c-1.505-.263-3.022-.549-4.512-.853a1.893,1.893,0,1,1,.761-3.708c1.452.3,2.933.576,4.4.832a1.892,1.892,0,0,1-.323,3.757m63.034-1.86a1.892,1.892,0,0,1-.436-3.734c1.45-.343,2.913-.711,4.344-1.093a1.893,1.893,0,1,1,.982,3.656c-1.467.391-2.964.769-4.451,1.12a1.914,1.914,0,0,1-.438.051m-76.32-1.056a1.907,1.907,0,0,1-.49-.064c-1.463-.389-2.95-.807-4.418-1.243a1.893,1.893,0,1,1,1.083-3.628c1.433.426,2.884.835,4.312,1.214a1.892,1.892,0,0,1-.486,3.721M207,307.1a1.892,1.892,0,0,1-.6-3.689c1.411-.468,2.834-.961,4.231-1.47a1.893,1.893,0,1,1,1.3,3.556c-1.432.521-2.891,1.027-4.337,1.507a1.909,1.909,0,0,1-.6.1m-102.386-1.42a1.9,1.9,0,0,1-.648-.114c-1.44-.522-2.888-1.071-4.3-1.631a1.893,1.893,0,1,1,1.4-3.518c1.383.547,2.8,1.083,4.2,1.592a1.892,1.892,0,0,1-.648,3.672M219.7,302.268a1.892,1.892,0,0,1-.754-3.63c1.365-.589,2.736-1.2,4.074-1.828a1.893,1.893,0,1,1,1.606,3.429c-1.371.639-2.776,1.27-4.174,1.873a1.89,1.89,0,0,1-.752.156M92.022,300.476a1.891,1.891,0,0,1-.8-.177c-1.384-.643-2.776-1.317-4.142-2a1.893,1.893,0,1,1,1.7-3.382c1.331.668,2.692,1.325,4.041,1.953a1.892,1.892,0,0,1-.8,3.608m139.893-4.122a1.892,1.892,0,0,1-.9-3.557c1.3-.7,2.617-1.437,3.9-2.178a1.893,1.893,0,1,1,1.9,3.276c-1.315.759-2.661,1.51-4,2.231a1.894,1.894,0,0,1-.9.228M79.939,294.2a1.894,1.894,0,0,1-.948-.254c-1.324-.764-2.653-1.555-3.946-2.353a1.893,1.893,0,1,1,1.993-3.22c1.263.778,2.559,1.55,3.852,2.3a1.892,1.892,0,0,1-.95,3.531m163.634-4.8a1.892,1.892,0,0,1-1.045-3.473c1.236-.812,2.481-1.657,3.7-2.51a1.894,1.894,0,1,1,2.178,3.1c-1.249.874-2.524,1.739-3.79,2.572a1.892,1.892,0,0,1-1.043.312m-175.116-2.5a1.891,1.891,0,0,1-1.087-.342c-1.25-.875-2.5-1.778-3.725-2.686a1.894,1.894,0,1,1,2.267-3.035c1.191.885,2.414,1.767,3.634,2.62a1.892,1.892,0,0,1-1.09,3.442m186.129-5.445a1.892,1.892,0,0,1-1.178-3.376c1.167-.922,2.335-1.872,3.47-2.824a1.894,1.894,0,1,1,2.439,2.9c-1.163.975-2.359,1.948-3.554,2.892a1.9,1.9,0,0,1-1.178.409M57.661,278.625a1.894,1.894,0,0,1-1.218-.443c-1.17-.979-2.339-1.987-3.475-3a1.894,1.894,0,0,1,2.521-2.827c1.11.985,2.251,1.969,3.393,2.924a1.892,1.892,0,0,1-1.221,3.342m207.21-6.05a1.893,1.893,0,0,1-1.3-3.269c1.079-1.016,2.161-2.064,3.214-3.114a1.894,1.894,0,1,1,2.681,2.677c-1.079,1.076-2.187,2.149-3.292,3.191a1.892,1.892,0,0,1-1.3.516M47.629,269.456a1.9,1.9,0,0,1-1.34-.553c-1.08-1.076-2.156-2.181-3.2-3.283a1.895,1.895,0,0,1,2.758-2.6c1.018,1.076,2.07,2.154,3.123,3.2a1.893,1.893,0,0,1-1.341,3.231m226.722-6.614a1.893,1.893,0,0,1-1.416-3.151c.988-1.106,1.975-2.244,2.933-3.382a1.9,1.9,0,1,1,2.9,2.435c-.982,1.166-1.994,2.331-3.006,3.465a1.894,1.894,0,0,1-1.416.633M38.434,259.459a1.894,1.894,0,0,1-1.453-.675c-.979-1.162-1.956-2.355-2.9-3.545a1.895,1.895,0,0,1,2.972-2.351c.924,1.162,1.877,2.326,2.832,3.461a1.893,1.893,0,0,1-1.45,3.11m244.52-7.137a1.893,1.893,0,0,1-1.519-3.024c.891-1.192,1.775-2.412,2.629-3.625a1.9,1.9,0,0,1,3.1,2.174c-.873,1.243-1.78,2.492-2.693,3.714a1.9,1.9,0,0,1-1.522.761m-252.81-3.613a1.894,1.894,0,0,1-1.553-.8c-.876-1.245-1.745-2.517-2.581-3.78a1.9,1.9,0,0,1,3.166-2.085c.817,1.234,1.663,2.475,2.519,3.69a1.894,1.894,0,0,1-1.551,2.98m260.466-7.617A1.894,1.894,0,0,1,289,238.2c.784-1.263,1.559-2.556,2.3-3.842a1.9,1.9,0,0,1,3.283,1.9c-.765,1.318-1.559,2.641-2.361,3.937a1.9,1.9,0,0,1-1.615.9M22.825,237.287a1.9,1.9,0,0,1-1.644-.944c-.763-1.313-1.516-2.654-2.238-3.987a1.9,1.9,0,0,1,3.335-1.8c.706,1.3,1.441,2.609,2.186,3.891a1.894,1.894,0,0,1-1.639,2.842m274.433-8.054a1.893,1.893,0,0,1-1.692-2.743c.666-1.322,1.326-2.678,1.959-4.031a1.9,1.9,0,0,1,3.437,1.6c-.648,1.386-1.325,2.776-2.008,4.131a1.9,1.9,0,0,1-1.7,1.041M16.534,225.279a1.9,1.9,0,0,1-1.72-1.09c-.644-1.372-1.276-2.772-1.879-4.164a1.9,1.9,0,0,1,3.48-1.5c.59,1.358,1.207,2.725,1.836,4.063a1.9,1.9,0,0,1-1.717,2.7m286.311-8.446a1.9,1.9,0,0,1-1.762-2.592c.551-1.381,1.09-2.792,1.6-4.189a1.9,1.9,0,0,1,3.565,1.294c-.522,1.433-1.074,2.878-1.638,4.294a1.9,1.9,0,0,1-1.763,1.194M11.322,212.776a1.9,1.9,0,0,1-1.782-1.243c-.524-1.431-1.033-2.887-1.512-4.325a1.9,1.9,0,0,1,3.6-1.194c.468,1.4.964,2.824,1.476,4.22a1.9,1.9,0,0,1-1.781,2.542M307.315,204a1.9,1.9,0,0,1-1.818-2.435c.425-1.416.835-2.863,1.22-4.3a1.9,1.9,0,0,1,3.666.976c-.4,1.473-.816,2.956-1.25,4.408A1.9,1.9,0,0,1,307.315,204m-300.1-4.164a1.9,1.9,0,0,1-1.83-1.4c-.4-1.467-.775-2.962-1.126-4.441a1.9,1.9,0,0,1,3.691-.874c.342,1.443.712,2.9,1.1,4.333a1.9,1.9,0,0,1-1.833,2.384m303.416-9a1.874,1.874,0,0,1-.384-.04,1.893,1.893,0,0,1-1.476-2.234c.3-1.452.581-2.929.837-4.391a1.9,1.9,0,0,1,3.736.652c-.263,1.5-.55,3.013-.857,4.5a1.9,1.9,0,0,1-1.856,1.512M4.27,186.589a1.9,1.9,0,0,1-1.865-1.564c-.264-1.489-.511-3.01-.733-4.521a1.9,1.9,0,0,1,3.754-.549c.217,1.475.457,2.96.714,4.413A1.893,1.893,0,0,1,4.6,186.56a1.931,1.931,0,0,1-.332.029m308.515-9.15a1.952,1.952,0,0,1-.22-.013,1.894,1.894,0,0,1-1.667-2.1c.172-1.471.323-2.968.451-4.447a1.9,1.9,0,0,1,3.779.326c-.132,1.516-.287,3.049-.461,4.557a1.9,1.9,0,0,1-1.882,1.675M2.5,173.135a1.894,1.894,0,0,1-1.887-1.727c-.133-1.514-.245-3.05-.335-4.568a1.9,1.9,0,0,1,3.787-.221c.087,1.481.2,2.981.327,4.458a1.9,1.9,0,0,1-1.724,2.05c-.057,0-.113.007-.168.007m311.263-9.23H313.7a1.894,1.894,0,0,1-1.842-1.946c.042-1.482.063-2.986.063-4.47v-.382a1.9,1.9,0,0,1,3.794-.01v.386c0,1.525-.022,3.066-.065,4.584a1.9,1.9,0,0,1-1.9,1.838M1.9,159.577A1.9,1.9,0,0,1,0,157.684V157.5c0-1.46.02-2.934.059-4.39a1.916,1.916,0,0,1,1.948-1.841,1.9,1.9,0,0,1,1.845,1.944c-.039,1.422-.06,2.862-.06,4.277v.2a1.9,1.9,0,0,1-1.9,1.892m311.641-9.628a1.894,1.894,0,0,1-1.891-1.78c-.09-1.485-.2-2.985-.332-4.458a1.9,1.9,0,0,1,3.778-.335c.134,1.509.249,3.046.34,4.567a1.893,1.893,0,0,1-1.78,2c-.038,0-.078,0-.115,0M2.465,146.018c-.054,0-.108,0-.163-.006a1.893,1.893,0,0,1-1.729-2.046c.128-1.51.282-3.044.455-4.557a1.9,1.9,0,0,1,3.77.43c-.17,1.478-.319,2.974-.445,4.449a1.9,1.9,0,0,1-1.888,1.732m309.673-9.566a1.9,1.9,0,0,1-1.874-1.616c-.217-1.468-.459-2.952-.718-4.412a1.9,1.9,0,0,1,3.734-.662c.267,1.5.514,3.017.738,4.521a1.894,1.894,0,0,1-1.6,2.149,1.938,1.938,0,0,1-.281.021M4.208,132.56a1.9,1.9,0,0,1-1.871-2.217c.26-1.494.547-3.009.851-4.5A1.9,1.9,0,0,1,6.9,126.6c-.3,1.456-.578,2.934-.831,4.392a1.9,1.9,0,0,1-1.866,1.569m305.356-9.433a1.9,1.9,0,0,1-1.843-1.453c-.343-1.437-.713-2.894-1.1-4.332a1.9,1.9,0,0,1,3.662-.986c.4,1.474.779,2.968,1.131,4.44a1.9,1.9,0,0,1-1.847,2.332M7.12,119.3a1.9,1.9,0,0,1-1.835-2.378c.391-1.466.809-2.95,1.245-4.41a1.9,1.9,0,0,1,3.635,1.079c-.424,1.425-.833,2.873-1.214,4.3A1.9,1.9,0,0,1,7.12,119.3m298.709-9.226a1.9,1.9,0,0,1-1.8-1.293c-.47-1.406-.968-2.825-1.481-4.219a1.9,1.9,0,0,1,3.563-1.3c.524,1.429,1.036,2.883,1.518,4.324a1.9,1.9,0,0,1-1.8,2.492M11.188,106.356A1.9,1.9,0,0,1,9.4,103.818c.52-1.43,1.069-2.875,1.633-4.3a1.9,1.9,0,0,1,3.527,1.393c-.549,1.386-1.085,2.8-1.593,4.192a1.9,1.9,0,0,1-1.783,1.248m289.78-8.933a1.9,1.9,0,0,1-1.741-1.138c-.59-1.358-1.21-2.724-1.84-4.061a1.9,1.9,0,0,1,3.434-1.609c.645,1.37,1.279,2.771,1.886,4.162a1.9,1.9,0,0,1-1.739,2.647M16.39,93.787A1.895,1.895,0,0,1,14.672,91.1c.647-1.387,1.32-2.777,2-4.133a1.9,1.9,0,0,1,3.39,1.7c-.664,1.322-1.322,2.679-1.954,4.032a1.9,1.9,0,0,1-1.721,1.095m278.628-8.54a1.9,1.9,0,0,1-1.669-.99c-.709-1.3-1.446-2.611-2.19-3.889a1.9,1.9,0,0,1,3.281-1.9c.761,1.309,1.517,2.649,2.244,3.984a1.9,1.9,0,0,1-1.665,2.8M22.676,81.729a1.893,1.893,0,0,1-1.642-2.838c.764-1.321,1.557-2.647,2.356-3.94a1.9,1.9,0,0,1,3.23,1.987c-.781,1.261-1.554,2.555-2.3,3.844a1.9,1.9,0,0,1-1.645.947m265.345-8.1a1.9,1.9,0,0,1-1.584-.848c-.821-1.238-1.669-2.479-2.522-3.687a1.9,1.9,0,0,1,3.1-2.179c.874,1.239,1.744,2.51,2.585,3.777a1.894,1.894,0,0,1-1.581,2.937M29.99,70.27a1.893,1.893,0,0,1-1.553-2.978c.871-1.241,1.775-2.492,2.689-3.716a1.895,1.895,0,0,1,3.044,2.258c-.892,1.2-1.775,2.417-2.625,3.629a1.9,1.9,0,0,1-1.555.807m250.045-7.614a1.9,1.9,0,0,1-1.487-.715c-.923-1.158-1.877-2.321-2.837-3.457a1.9,1.9,0,0,1,2.9-2.439c.982,1.164,1.96,2.355,2.9,3.542a1.892,1.892,0,0,1-1.482,3.069M38.272,59.493a1.893,1.893,0,0,1-1.452-3.108c.98-1.167,1.99-2.334,3-3.469a1.895,1.895,0,0,1,2.835,2.515c-.986,1.107-1.971,2.246-2.929,3.385a1.892,1.892,0,0,1-1.455.677m232.847-7.082a1.893,1.893,0,0,1-1.378-.592c-1.024-1.079-2.076-2.156-3.128-3.2a1.895,1.895,0,0,1,2.679-2.681c1.077,1.071,2.155,2.174,3.2,3.279a1.893,1.893,0,0,1-1.377,3.194M47.457,49.477a1.892,1.892,0,0,1-1.342-3.229c1.073-1.074,2.18-2.149,3.288-3.195a1.895,1.895,0,1,1,2.607,2.75c-1.081,1.021-2.161,2.07-3.209,3.118a1.892,1.892,0,0,1-1.343.556M261.346,42.97a1.889,1.889,0,0,1-1.259-.477c-1.115-.987-2.257-1.969-3.395-2.92a1.894,1.894,0,1,1,2.435-2.9c1.166.974,2.337,1.98,3.478,2.992a1.893,1.893,0,0,1-1.259,3.308M57.473,40.3a1.892,1.892,0,0,1-1.222-3.34c1.16-.974,2.355-1.949,3.551-2.9a1.895,1.895,0,1,1,2.359,2.965c-1.169.925-2.334,1.876-3.467,2.827a1.888,1.888,0,0,1-1.221.445m193.311-5.89a1.892,1.892,0,0,1-1.131-.373c-1.193-.884-2.416-1.764-3.637-2.616a1.894,1.894,0,1,1,2.172-3.1c1.252.873,2.507,1.775,3.728,2.681a1.892,1.892,0,0,1-1.133,3.411M68.244,32.02a1.891,1.891,0,0,1-1.092-3.44c1.242-.872,2.517-1.739,3.787-2.577a1.894,1.894,0,1,1,2.093,3.158c-1.241.817-2.485,1.663-3.7,2.515a1.89,1.89,0,0,1-1.09.344m171.269-5.231a1.9,1.9,0,0,1-.994-.281c-1.272-.781-2.57-1.552-3.855-2.291a1.894,1.894,0,1,1,1.895-3.279c1.317.757,2.646,1.547,3.951,2.348a1.892,1.892,0,0,1-1,3.5M79.69,24.711a1.892,1.892,0,0,1-.954-3.529c1.317-.762,2.66-1.514,3.995-2.236a1.893,1.893,0,1,1,1.809,3.327c-1.3.7-2.615,1.439-3.9,2.183a1.9,1.9,0,0,1-.95.256m147.923-4.534a1.888,1.888,0,0,1-.848-.2c-1.331-.665-2.692-1.32-4.043-1.947a1.893,1.893,0,1,1,1.6-3.432c1.385.643,2.78,1.314,4.144,2a1.892,1.892,0,0,1-.851,3.585M91.721,18.428a1.892,1.892,0,0,1-.806-3.606c1.377-.644,2.782-1.277,4.172-1.879a1.893,1.893,0,1,1,1.51,3.473c-1.358.587-2.727,1.2-4.071,1.833a1.9,1.9,0,0,1-.8.179m123.454-3.8a1.892,1.892,0,0,1-.7-.133c-1.385-.546-2.8-1.08-4.2-1.586a1.893,1.893,0,1,1,1.29-3.56c1.439.52,2.888,1.067,4.308,1.627a1.892,1.892,0,0,1-.7,3.653M104.249,13.221a1.892,1.892,0,0,1-.652-3.669c1.428-.522,2.885-1.03,4.334-1.511a1.893,1.893,0,1,1,1.2,3.59c-1.415.47-2.837.966-4.23,1.475a1.886,1.886,0,0,1-.651.116M202.3,10.194a1.908,1.908,0,0,1-.54-.079c-1.425-.422-2.876-.828-4.313-1.208a1.893,1.893,0,1,1,.973-3.659c1.473.39,2.96.807,4.42,1.239a1.892,1.892,0,0,1-.54,3.707m-85.09-1.073a1.892,1.892,0,0,1-.492-3.72c1.475-.4,2.972-.775,4.451-1.126a1.893,1.893,0,1,1,.878,3.682c-1.442.342-2.9.711-4.342,1.1a1.9,1.9,0,0,1-.495.065m71.893-2.213a1.892,1.892,0,0,1-.381-.039c-1.455-.3-2.936-.574-4.4-.826a1.893,1.893,0,1,1,.646-3.73c1.5.259,3.021.544,4.513.847a1.892,1.892,0,0,1-.376,3.747m-58.617-.736a1.892,1.892,0,0,1-.328-3.757c1.5-.264,3.02-.511,4.532-.732a1.892,1.892,0,1,1,.553,3.744c-1.476.217-2.964.457-4.424.715a1.867,1.867,0,0,1-.333.03m45.183-1.385a1.9,1.9,0,0,1-.216-.012c-1.481-.168-2.982-.316-4.46-.441a1.892,1.892,0,1,1,.319-3.771c1.514.127,3.051.279,4.568.451a1.892,1.892,0,0,1-.211,3.772m-31.7-.4a1.892,1.892,0,0,1-.165-3.777c1.52-.134,3.061-.248,4.578-.337a1.892,1.892,0,1,1,.224,3.778c-1.481.087-2.985.2-4.469.328-.057,0-.112.007-.168.007M162.1,3.841h-.052c-1.392-.037-2.8-.055-4.193-.055h-.292A1.892,1.892,0,1,1,157.561,0h.3c1.418,0,2.864.019,4.288.057a1.892,1.892,0,0,1-.049,3.784" transform="translate(137.939 136.079)" fill="#d9d9d9"/>
    <path id="Path_174" data-name="Path 174" d="M13.4,13.718H3.342v9.311H14.557v2.8H0V0H13.98V2.8H3.342v8.161H13.4Z" transform="translate(562.293 278.658)" fill="#d9d9d9"/>
    <path id="Path_175" data-name="Path 175" d="M15.942,27.207H0V0H15.366V4.18H4.727v6.779H14.79V15.1H4.727v7.929H15.942ZM1.386,25.826H14.557V24.41H3.342V13.718H13.4V12.341H3.342V2.8H13.98V1.382H1.386Z" transform="translate(561.601 277.967)" fill="#d9d9d9"/>
    <path id="Path_176" data-name="Path 176" d="M0,25.825V0H3.65l8.3,13.066a73.046,73.046,0,0,1,4.647,8.391l.077-.038c-.307-3.448-.384-6.59-.384-10.613V0h3.149V25.825h-3.38l-8.218-13.1A81.682,81.682,0,0,1,3,4.1l-.116.039c.191,3.256.268,6.36.268,10.651V25.825Z" transform="translate(287.012 0.691)" fill="#d9d9d9"/>
    <path id="Path_177" data-name="Path 177" d="M20.819,27.206H16.363L7.941,13.778C6.516,11.511,5.36,9.545,4.41,7.767c.087,2.285.125,4.7.125,7.713V27.206H0V0H4.722l8.5,13.387C14.436,15.3,15.5,17.124,16.441,18.9c-.125-2.4-.156-4.776-.156-7.4V0h4.535ZM17.13,25.824h2.3V1.382H17.67V11.5c0,3.768.064,7,.381,10.553l.042.471-1.138.561-.3-.642a72.782,72.782,0,0,0-4.6-8.313L3.96,1.382H1.385V25.824H3.149V15.48c0-4.311-.078-7.386-.267-10.611L2.85,4.344l1.2-.409.262.563a79.779,79.779,0,0,0,4.8,8.547Z" transform="translate(286.32 0)" fill="#d9d9d9"/>
    <path id="Path_178" data-name="Path 178" d="M.845,22.185a11.865,11.865,0,0,0,5.991,1.687c3.419,0,5.416-1.8,5.416-4.407,0-2.413-1.383-3.793-4.877-5.135C3.149,12.837.538,10.652.538,7.012.538,2.989,3.879,0,8.91,0a11.767,11.767,0,0,1,5.722,1.266l-.921,2.719A10.338,10.338,0,0,0,8.8,2.758c-3.534,0-4.877,2.108-4.877,3.87,0,2.414,1.575,3.6,5.146,4.982C13.443,13.3,15.67,15.4,15.67,19.2c0,3.985-2.958,7.434-9.065,7.434A13.407,13.407,0,0,1,0,24.983Z" transform="translate(288.874 561.481)" fill="#d9d9d9"/>
    <path id="Path_179" data-name="Path 179" d="M7.417,28.012a14.021,14.021,0,0,1-6.99-1.764L0,25.964l1.252-4.147.766.471a11.216,11.216,0,0,0,5.628,1.584c2.914,0,4.724-1.424,4.724-3.716,0-1.765-.725-3.066-4.434-4.49C3.043,13.937.656,11.33.656,7.7.656,3.168,4.384,0,9.722,0a12.293,12.293,0,0,1,6.064,1.355l.5.282L14.914,5.676l-.723-.393A9.6,9.6,0,0,0,9.606,4.14c-3.089,0-4.185,1.712-4.185,3.179,0,1.908,1.143,2.963,4.7,4.338,4.94,1.9,7.049,4.363,7.049,8.231,0,3.748-2.555,8.125-9.758,8.125M1.631,25.356A13.585,13.585,0,0,0,7.417,26.63c5.086,0,8.372-2.646,8.372-6.742,0-3.289-1.728-5.235-6.163-6.941-3.54-1.368-5.59-2.727-5.59-5.628,0-2.2,1.744-4.561,5.571-4.561a11.075,11.075,0,0,1,4.513.948L14.6,2.3a11.694,11.694,0,0,0-4.875-.919c-4.522,0-7.68,2.6-7.68,6.321,0,3.011,2.026,5.129,6.375,6.667,3.212,1.233,5.339,2.685,5.339,5.786s-2.4,5.1-6.109,5.1A12.547,12.547,0,0,1,2.071,23.9Z" transform="translate(288.064 560.79)" fill="#d9d9d9"/>
    <path id="Path_180" data-name="Path 180" d="M3.457,0,5.915,9.426c.538,2.069,1.038,3.985,1.383,5.9h.115c.423-1.877,1.037-3.87,1.652-5.862L12.1,0H14.94l2.881,9.273c.691,2.223,1.23,4.177,1.651,6.054h.116a55.643,55.643,0,0,1,1.421-6.016L23.659,0H27L21.009,18.546H17.936L15.094,9.694A62.157,62.157,0,0,1,13.443,3.6h-.077a54.768,54.768,0,0,1-1.69,6.13l-3,8.813H5.608L0,0Z" transform="translate(0.932 285.938)" fill="#d9d9d9"/>
    <path id="Path_181" data-name="Path 181" d="M22.445,19.928H18.363l-3-9.331c-.383-1.213-.723-2.339-1.031-3.489-.342,1.268-.71,2.433-1.07,3.531l-3.157,9.289H6.025L0,0H4.924L7.517,9.944c.294,1.134.578,2.224.831,3.291.31-1.092.651-2.2.986-3.282L12.525,0h3.858l3.031,9.76c.378,1.212.7,2.322.986,3.372.268-1.129.571-2.244.873-3.316L24.068,0h4.816Zm-3.071-1.382h2.062L26.981,1.383H25.115l-2.508,8.809a55.2,55.2,0,0,0-1.4,5.939l-.095.579H19.85l-.121-.539c-.41-1.821-.93-3.727-1.638-6L15.362,1.383H13.536l-2.88,8.984c-.6,1.939-1.218,3.951-1.635,5.8l-.122.54H7.651l-.1-.568c-.339-1.878-.835-3.788-1.362-5.811L3.854,1.383H1.865L7.055,18.546H9.116L11.953,10.2a54.639,54.639,0,0,0,1.667-6.049l.114-.551h1.2l.116.549a61.235,61.235,0,0,0,1.634,6.027Z" transform="translate(0 285.246)" fill="#d9d9d9"/>
    <path id="Path_182" data-name="Path 182" d="M0,10.114,10.184,0l1.681,1.685-1.33,8.947a39.22,39.22,0,0,1-1.167,5.433l.05.02a54.088,54.088,0,0,1,4.009-4.334l4.261-4.232,1.45,1.455L8.954,19.087,7.4,17.527,8.777,8.6a43.928,43.928,0,0,1,1.17-5.611l-.069-.038C8.683,4.315,7.495,5.565,5.8,7.246L1.451,11.568Z" transform="translate(499.272 68.646)" fill="#d9d9d9"/>
    <path id="Path_183" data-name="Path 183" d="M10.95,11.561,6.315,6.915,2.643,10.562,7.81,15.74l-1.1,1.1L0,10.114,10.184,0l6.442,6.455-1.1,1.1-4.9-4.912L7.4,5.835l4.636,4.647Z" transform="translate(510.914 80.313)" fill="#d9d9d9"/>
    <path id="Path_184" data-name="Path 184" d="M10.138,19.093,0,8.933,1.689,7.256l8.968,1.327A39.37,39.37,0,0,1,16.1,9.748l.021-.05a54.3,54.3,0,0,1-4.343-4L7.537,1.448,8.995,0,19.133,10.16l-1.564,1.554L8.621,10.337A44.405,44.405,0,0,1,3,9.169l-.039.068C4.325,10.43,5.58,11.616,7.264,13.3L11.6,17.645Z" transform="translate(68.396 76.709)" fill="#d9d9d9"/>
    <path id="Path_185" data-name="Path 185" d="M13.177,21.671,0,14.53l1.635-1.624,6.552,3.728c1.62.914,3.2,1.862,4.393,2.63l.035-.035a50.356,50.356,0,0,1-2.541-4.5L6.559,8.015,8.177,6.409l6.6,3.707a49,49,0,0,1,4.31,2.652l.035-.035c-.865-1.362-1.654-2.828-2.544-4.465l-3.532-6.7L14.629,0l6.743,13.532-1.617,1.606-6.791-3.79a37.662,37.662,0,0,1-4.09-2.539l-.036.035a39.087,39.087,0,0,1,2.384,4.234l3.573,6.986Z" transform="translate(79.008 60.575)" fill="#d9d9d9"/>
    <path id="Path_186" data-name="Path 186" d="M14.6,6.717a8.74,8.74,0,0,0-2.1-3.427c-1.575-1.579-3.205-1.8-4.232-.775-.952.945-.859,2.125.222,4.263,1.357,2.536,1.7,4.6.264,6.023-1.586,1.576-4.3,1.2-6.622-1.12A8.788,8.788,0,0,1,0,8.543L1.5,7.9a7.645,7.645,0,0,0,1.781,2.75c1.628,1.632,3.079,1.426,3.774.736.952-.945.695-2.137-.407-4.327C5.293,4.381,5.1,2.527,6.593,1.042,8.165-.519,10.887-.5,13.7,2.316a9.943,9.943,0,0,1,2.394,3.7Z" transform="translate(88.246 498.519)" fill="#d9d9d9"/>
    <path id="Path_187" data-name="Path 187" d="M21.721,8.175,14.563,21.322,12.936,19.69l3.736-6.536c.916-1.615,1.866-3.195,2.636-4.383l-.035-.035a50.554,50.554,0,0,1-4.508,2.536l-6.73,3.506-1.61-1.614L10.14,6.578a48.71,48.71,0,0,1,2.659-4.3l-.035-.035C11.4,3.1,9.928,3.893,8.286,4.781L1.575,8.3,0,6.727,13.563,0l1.611,1.614-3.8,6.774A37.5,37.5,0,0,1,8.829,12.47l.035.035a39.323,39.323,0,0,1,4.244-2.379l7-3.565Z" transform="translate(71.847 484.564)" fill="#d9d9d9"/>
    <path id="Path_188" data-name="Path 188" d="M16.154,0,0,16.116l1.971,1.967L18.125,1.967Z" transform="translate(481.256 96.628)" fill="#d9d9d9"/>
    <path id="Path_189" data-name="Path 189" d="M16.153,0,0,16.115l1.971,1.967L18.125,1.967Z" transform="translate(101.034 475.957)" fill="#d9d9d9"/>
    <path id="Path_190" data-name="Path 190" d="M1.971,0,0,1.967,16.154,18.082l1.971-1.967Z" transform="translate(477.746 472.456)" fill="#d9d9d9"/>
    <path id="Path_191" data-name="Path 191" d="M0,1.967,16.153,18.082l1.971-1.967L1.971,0Z" transform="translate(97.526 93.126)" fill="#d9d9d9"/>
    <path id="Path_192" data-name="Path 192" d="M6.732,1.489A8.772,8.772,0,0,0,3.3,3.579C1.715,5.15,1.5,6.777,2.521,7.8c.948.95,2.129.857,4.273-.222,2.542-1.354,4.609-1.7,6.038-.263,1.579,1.583,1.205,4.294-1.123,6.606a8.8,8.8,0,0,1-3.145,2.134l-.641-1.494a7.678,7.678,0,0,0,2.757-1.778c1.635-1.624,1.43-3.071.738-3.764-.947-.949-2.143-.693-4.336.406-2.689,1.349-4.547,1.544-6.036.052C-.52,7.911-.5,5.2,2.321,2.388A9.971,9.971,0,0,1,6.025,0Z" transform="translate(508.131 486.253)" fill="#d9d9d9"/>
    <path id="Path_193" data-name="Path 193" d="M5.286,10.925,9.943,6.3,6.289,2.636,1.1,7.792,0,6.691,6.737,0,16.875,10.16,10.4,16.586l-1.1-1.1L14.23,10.6l-3.2-3.211L6.369,12.01Z" transform="translate(497.557 495.058)" fill="#d9d9d9"/>
    <rect id="Rectangle_118" data-name="Rectangle 118" width="2.078" height="513.297" transform="translate(294.779 38.099)" fill="#d9d9d9"/>
    <rect id="Rectangle_119" data-name="Rectangle 119" width="471.042" height="2.078" transform="translate(64.107 292.323)" fill="#d9d9d9"/>
  </g>
</svg>
