<svg id="Group_176" data-name="Group 176" xmlns="http://www.w3.org/2000/svg" xmlns:xlink="http://www.w3.org/1999/xlink" width="124.5" height="57.423" viewBox="0 0 124.5 57.423">
  <defs>
    <clipPath id="clip-path">
      <rect id="Rectangle_185" data-name="Rectangle 185" width="124.5" height="57.423" fill="#fff"/>
    </clipPath>
  </defs>
  <g id="Group_175" data-name="Group 175" transform="translate(0 0)" clip-path="url(#clip-path)">
    <path id="Path_234" data-name="Path 234" d="M81.814,87.164c-7.236,0-11.015-4.516-11.015-11.2V63.8h5.853V75.6c0,4.286,2.028,5.9,5.162,5.9" transform="translate(-33.004 -29.741)" fill="#fff"/>
    <path id="Path_235" data-name="Path 235" d="M91.432,81.5c3.134,0,5.162-1.613,5.162-5.9V63.8h5.853V75.967c0,6.682-3.778,11.2-11.015,11.2" transform="translate(-42.623 -29.742)" fill="#fff"/>
    <path id="Path_236" data-name="Path 236" d="M127.777,79.975h-5.9V62.6h-3V56.932h3V49.19h5.9v7.742h3V62.6h-3Z" transform="translate(-55.42 -22.931)" fill="#fff"/>
    <path id="Path_237" data-name="Path 237" d="M159.134,72.057c-1.333-2.12-2.088-2.9-4.221-2.9h-1.555v9.033h-5.643V45.353h5.643V63.531h1.377c2.088,0,2.843-.737,4.176-2.9l3.465-5.484h6.265l-4.976,7.789a9,9,0,0,1-3.154,3.364c1.111.369,2.355,1.843,3.376,3.457l5.331,8.433h-6.264Z" transform="translate(-68.861 -21.142)" fill="#fff"/>
    <path id="Path_238" data-name="Path 238" d="M207.625,86.454l.025-3.225a10.333,10.333,0,0,1-8,3.5c-6.544,0-11.245-5.253-11.245-11.8s4.7-11.844,11.245-11.844a10.28,10.28,0,0,1,7.989,3.455l-.017-3.133h4.7V86.454Zm-1.474-11.521a5.949,5.949,0,1,0-11.89,0,5.948,5.948,0,1,0,11.89,0" transform="translate(-87.83 -29.41)" fill="#fff"/>
    <path id="Path_239" data-name="Path 239" d="M33.6,37.33s-4.567-.078-5.509-.292-3.815.022-5.506-4.282a9.348,9.348,0,0,1,.378-6.469c1.063-2.187,2.163-3.581,3.351-3.871a3.7,3.7,0,0,1,3.509,1.456,24.667,24.667,0,0,1,2.215,4.543c.351.927,2.513,5.634,2.513,5.634s.936,1.142.86,1.6S33.6,37.33,33.6,37.33" transform="translate(-10.345 -10.417)" fill="#fff" fill-rule="evenodd"/>
    <path id="Path_240" data-name="Path 240" d="M50.4,37.2s1.868-3.3,2.642-4.322A7.872,7.872,0,0,1,56.76,29.9a6.126,6.126,0,0,1,3.687-.279,10.019,10.019,0,0,1,3.74,2.146,9.038,9.038,0,0,1,2.492,3.814c.545,1.7.661,3.019-.117,4.06a3.594,3.594,0,0,1-3.21,1.107c-1.571-.125-3.854-.486-4.4-.549s-5.934-.523-5.934-.523-1.215.009-1.4-.321-.761-.493-.708-.775A4.926,4.926,0,0,0,50.4,37.2" transform="translate(-23.496 -13.73)" fill="#fff" fill-rule="evenodd"/>
    <path id="Path_241" data-name="Path 241" d="M44.193,52.713A7.162,7.162,0,0,1,45.618,54.3a13.378,13.378,0,0,1,1.575,3.9c.242,1.422.338,3.768-.514,5.195a9.965,9.965,0,0,1-4.656,3.757,8.446,8.446,0,0,1-5.645.547,2.851,2.851,0,0,1-2.193-1.608,4.219,4.219,0,0,1,.338-3.983c.874-1.3,4.119-5.44,4.359-5.727s1.86-2.39,2.121-2.685a3.835,3.835,0,0,1,1.681-1.13,3.9,3.9,0,0,1,1.509.15" transform="translate(-15.774 -24.49)" fill="#fff" fill-rule="evenodd"/>
    <path id="Path_242" data-name="Path 242" d="M49.173,45.375a3.094,3.094,0,1,1-4.027-1.709,3.094,3.094,0,0,1,4.027,1.709" transform="translate(-20.143 -20.25)" fill="#fff" fill-rule="evenodd"/>
    <path id="Path_243" data-name="Path 243" d="M29.887,77.692A21.436,21.436,0,0,1,8.056,61.434H0A29.319,29.319,0,0,0,29.887,85.582Z" transform="translate(0 -28.639)" fill="#fff" fill-rule="evenodd"/>
    <path id="Path_244" data-name="Path 244" d="M79.6,24.166A29.32,29.32,0,0,0,49.711.019V7.909a21.433,21.433,0,0,1,21.83,16.256Z" transform="translate(-23.174 0)" fill="#fff" fill-rule="evenodd"/>
  </g>
</svg>
