<svg xmlns="http://www.w3.org/2000/svg" width="21.616" height="25.585" viewBox="0 0 21.616 25.585">
  <path id="Path_226" data-name="Path 226" d="M25.064,11.717A10.806,10.806,0,1,0,6.679,20.4l6.739,6.752a1.271,1.271,0,0,0,1.805,0L21.937,20.4A10.757,10.757,0,0,0,25.064,11.717Zm-4.908,6.891-5.849,5.849L8.459,18.608a8.252,8.252,0,0,1-2.378-6.637A8.354,8.354,0,0,1,9.756,5.83a8.226,8.226,0,0,1,9.1,0,8.354,8.354,0,0,1,3.675,6.116,8.252,8.252,0,0,1-2.378,6.663ZM14.308,7.1a5.722,5.722,0,1,0,5.722,5.722A5.722,5.722,0,0,0,14.308,7.1Zm0,8.9a3.179,3.179,0,1,1,3.179-3.179A3.179,3.179,0,0,1,14.308,16Z" transform="translate(-3.5 -1.943)" fill="#fff"/>
</svg>
