<svg xmlns="http://www.w3.org/2000/svg" xmlns:xlink="http://www.w3.org/1999/xlink" width="286" height="46.903" viewBox="0 0 286 46.903">
  <defs>
    <clipPath id="clip-path">
      <rect id="Rectangle_188" data-name="Rectangle 188" width="286" height="46.903" fill="none"/>
    </clipPath>
  </defs>
  <g id="Group_177" data-name="Group 177" clip-path="url(#clip-path)">
    <path id="Path_245" data-name="Path 245" d="M108.959,40.146a14.053,14.053,0,0,0,7.323-2.4,10,10,0,0,0,1.993-1.407l2.752,7.567a19.706,19.706,0,0,1-5.271,2.758,19.057,19.057,0,0,1-7.221,1.408,18.452,18.452,0,0,1-8.552-2.418,17.349,17.349,0,0,1-6.306-6.005,15.921,15.921,0,0,1-2.546-8.172,18.049,18.049,0,0,1,5.04-13.245,15.578,15.578,0,0,1,11.664-5.394,15.369,15.369,0,0,1,12.608,5.972,17.183,17.183,0,0,1,3.047,5.279L101.327,37.222a12.084,12.084,0,0,0,7.631,2.925m-10.21-9.316L113.292,22.5a8.526,8.526,0,0,0-5.162-1.993,8.261,8.261,0,0,0-4.746,1.35,9.3,9.3,0,0,0-3.427,3.774,11.255,11.255,0,0,0-1.209,5.2" transform="translate(-10.415 -1.467)" fill="#002575"/>
    <path id="Path_246" data-name="Path 246" d="M139.981,33.329V47.756H132.3V13.165h7.5V18.5c.7-.778,1.665-1.768,2.873-2.983a13.6,13.6,0,0,1,2.4-1.762,11.309,11.309,0,0,1,5.452-1.055c.553,0,1.054.019,1.53.065a3.631,3.631,0,0,1,.7.058l-3.517,8.9c-2.578,0-4.359.412-5.33,1.235a11.252,11.252,0,0,0-2.964,3.633,11.723,11.723,0,0,0-.907,4.687Z" transform="translate(-15.12 -1.451)" fill="#002575"/>
    <path id="Path_247" data-name="Path 247" d="M190.771,21.234a5.31,5.31,0,0,0-5.445,3.459,5.626,5.626,0,0,0-.534,2.225V47.793H177.52V25.58a7.207,7.207,0,0,0-.874-3.285c-.469-.946-1.608-1.4-3.4-1.4a3.309,3.309,0,0,0-2.817,1.633,10.445,10.445,0,0,0-2.109,5.922V47.793h-8.082V13.2h7.375V18.07a10.127,10.127,0,0,1,2.649-3.228,8.135,8.135,0,0,1,5.8-1.819,7.438,7.438,0,0,1,6.97,4.282,6.61,6.61,0,0,1,2.3-2.225c1.632-1.132,4-1.7,7.085-1.7a8.776,8.776,0,0,1,8.616,5.568,13.663,13.663,0,0,1,1.176,5.62V47.793H194.23V25.458a5.6,5.6,0,0,0-.8-2.694,2.89,2.89,0,0,0-2.662-1.53" transform="translate(-18.314 -1.488)" fill="#002575"/>
    <path id="Path_248" data-name="Path 248" d="M240.029,22.16v25.5h-6.738V43.55a10.954,10.954,0,0,1-7.452,3.46,12.346,12.346,0,0,1-6.211-1.473q-6.153-3.153-6.333-9.489a11.065,11.065,0,0,1,5.51-10.191,12.871,12.871,0,0,1,5.575-2,13.448,13.448,0,0,1,8.081,2.289V23.973l-.174-1.112a3.239,3.239,0,0,0-1.7-2.546,8.958,8.958,0,0,0-3.987-.791,27.2,27.2,0,0,0-6.037.81,19.227,19.227,0,0,0-4.109,1.182l2.469-8.448a12.523,12.523,0,0,1,3.395-.874,35.5,35.5,0,0,1,5.4-.353,29.364,29.364,0,0,1,3.395.173,9.362,9.362,0,0,1,6.1,3.164,12.546,12.546,0,0,1,2.752,6.449v.289a.544.544,0,0,1,.058.244m-19.115,12.9a4.126,4.126,0,0,0,1.941,3.626,6.455,6.455,0,0,0,4.044,1.286,6.8,6.8,0,0,0,3.813-1.08,4.347,4.347,0,0,0,1.929-3.138,4.609,4.609,0,0,0-1.788-3.774,6.407,6.407,0,0,0-4.134-1.434,6.854,6.854,0,0,0-3.864,1.112,4.085,4.085,0,0,0-1.941,3.4" transform="translate(-24.377 -1.354)" fill="#002575"/>
    <path id="Path_249" data-name="Path 249" d="M257.123,33.329V47.756h-7.677V13.165h7.5V18.5c.707-.778,1.665-1.768,2.873-2.983a13.577,13.577,0,0,1,2.4-1.762A11.286,11.286,0,0,1,267.68,12.7c.54,0,1.049.019,1.517.065a3.752,3.752,0,0,1,.708.058l-3.523,8.9q-3.867,0-5.33,1.235a11.516,11.516,0,0,0-2.964,3.633,11.943,11.943,0,0,0-.907,4.687Z" transform="translate(-28.509 -1.451)" fill="#002575"/>
    <rect id="Rectangle_186" data-name="Rectangle 186" width="7.812" height="34.604" transform="translate(245.539 11.701)" fill="#002575"/>
    <path id="Path_250" data-name="Path 250" d="M300.018,47.817H291.93V13.227h7.323v4.925c.945-1.408,2.732-2.714,5.4-3.929a11,11,0,0,1,4.911-1,8.991,8.991,0,0,1,8.622,5.8,14.281,14.281,0,0,1,1.176,5.87V47.817H311.4V25.771a8.072,8.072,0,0,0-.187-1.228,3.654,3.654,0,0,0-1.935-3.048,4.331,4.331,0,0,0-2.521-.578,6.225,6.225,0,0,0-4.661,2.482,7.723,7.723,0,0,0-2.076,5.073Z" transform="translate(-33.365 -1.512)" fill="#002575"/>
    <path id="Path_251" data-name="Path 251" d="M58.784,28.394s4.488-3.137,18.568,8.808c10.377,8.783,20.555-6.771,20.555-6.771S90.372,35.55,80.4,26.806c-9.072-7.96-21.616,1.588-21.616,1.588" transform="translate(-6.718 -2.702)" fill="#009fae"/>
    <path id="Path_252" data-name="Path 252" d="M76.98,42.54S67.059,47.349,42.9,19.1C25.12-1.7,0,25.515,0,25.515s16.517-7.33,33.523,13.244C48.986,57.488,76.98,42.54,76.98,42.54" transform="translate(0 -1.288)" fill="#002575"/>
    <rect id="Rectangle_187" data-name="Rectangle 187" width="7.818" height="7.818" transform="translate(245.539 0)" fill="#002575"/>
  </g>
</svg>
