<svg xmlns="http://www.w3.org/2000/svg" xmlns:xlink="http://www.w3.org/1999/xlink" width="213.167" height="34.958" viewBox="0 0 213.167 34.958">
  <defs>
    <clipPath id="clip-path">
      <rect id="Rectangle_4" data-name="Rectangle 4" width="213.167" height="34.958" fill="#fff"/>
    </clipPath>
  </defs>
  <g id="Group_2" data-name="Group 2" transform="translate(0 0)">
    <g id="Group_1" data-name="Group 1" transform="translate(0 0)" clip-path="url(#clip-path)">
      <path id="Path_1" data-name="Path 1" d="M104.417,33.191a10.474,10.474,0,0,0,5.458-1.792,7.452,7.452,0,0,0,1.485-1.049l2.051,5.64a14.688,14.688,0,0,1-3.929,2.056A14.2,14.2,0,0,1,104.1,39.1a13.753,13.753,0,0,1-6.374-1.8,12.931,12.931,0,0,1-4.7-4.476,11.866,11.866,0,0,1-1.9-6.091,13.453,13.453,0,0,1,3.756-9.872,11.611,11.611,0,0,1,8.694-4.02,11.455,11.455,0,0,1,9.4,4.451,12.807,12.807,0,0,1,2.271,3.935L98.729,31.011a9.007,9.007,0,0,0,5.688,2.18m-7.61-6.943,10.84-6.206a6.354,6.354,0,0,0-3.847-1.485,6.157,6.157,0,0,0-3.537,1.006,6.934,6.934,0,0,0-2.554,2.813,8.389,8.389,0,0,0-.9,3.872" transform="translate(-30.968 -4.361)" fill="#fff"/>
      <path id="Path_2" data-name="Path 2" d="M138.024,28.074V38.827H132.3V13.046h5.593v3.973c.522-.58,1.241-1.318,2.142-2.223a10.139,10.139,0,0,1,1.788-1.313,8.429,8.429,0,0,1,4.064-.786c.412,0,.786.015,1.14.048a2.707,2.707,0,0,1,.523.044l-2.621,6.637c-1.922,0-3.249.307-3.973.92a8.386,8.386,0,0,0-2.209,2.708,8.738,8.738,0,0,0-.676,3.494Z" transform="translate(-44.961 -4.315)" fill="#fff"/>
      <path id="Path_3" data-name="Path 3" d="M183,19.141a3.958,3.958,0,0,0-4.059,2.578,4.193,4.193,0,0,0-.4,1.658v15.56h-5.42V22.381a5.371,5.371,0,0,0-.652-2.449c-.35-.705-1.2-1.045-2.535-1.045a2.466,2.466,0,0,0-2.1,1.217,7.785,7.785,0,0,0-1.572,4.414V38.937h-6.024V13.156h5.5v3.628a7.548,7.548,0,0,1,1.975-2.406,6.064,6.064,0,0,1,4.322-1.356,5.544,5.544,0,0,1,5.195,3.192,4.927,4.927,0,0,1,1.711-1.658,9.239,9.239,0,0,1,5.281-1.265,6.541,6.541,0,0,1,6.422,4.15,10.183,10.183,0,0,1,.877,4.189V38.937h-5.943V22.289a4.177,4.177,0,0,0-.594-2.008A2.154,2.154,0,0,0,183,19.141" transform="translate(-54.456 -4.424)" fill="#fff"/>
      <path id="Path_4" data-name="Path 4" d="M233.219,19.532V38.538H228.2V35.475a8.164,8.164,0,0,1-5.555,2.579,9.2,9.2,0,0,1-4.629-1.1,7.827,7.827,0,0,1-4.72-7.073,8.247,8.247,0,0,1,4.107-7.6,9.593,9.593,0,0,1,4.155-1.49,10.023,10.023,0,0,1,6.023,1.706v-1.62l-.129-.829a2.414,2.414,0,0,0-1.265-1.9,6.676,6.676,0,0,0-2.971-.59,20.273,20.273,0,0,0-4.5.6,14.33,14.33,0,0,0-3.062.881l1.841-6.3a9.334,9.334,0,0,1,2.53-.652,26.464,26.464,0,0,1,4.025-.263,21.886,21.886,0,0,1,2.53.129,6.978,6.978,0,0,1,4.548,2.358,9.351,9.351,0,0,1,2.051,4.807v.215a.406.406,0,0,1,.043.182m-14.247,9.613a3.076,3.076,0,0,0,1.447,2.7,4.811,4.811,0,0,0,3.014.959,5.067,5.067,0,0,0,2.842-.8,3.24,3.24,0,0,0,1.438-2.339,3.435,3.435,0,0,0-1.333-2.813,4.775,4.775,0,0,0-3.081-1.069,5.108,5.108,0,0,0-2.88.829,3.045,3.045,0,0,0-1.447,2.535" transform="translate(-72.486 -4.024)" fill="#fff"/>
      <path id="Path_5" data-name="Path 5" d="M255.168,28.074V38.827h-5.722V13.046h5.588v3.973c.527-.58,1.241-1.318,2.142-2.223a10.116,10.116,0,0,1,1.792-1.313,8.412,8.412,0,0,1,4.068-.786c.4,0,.782.015,1.131.048a2.8,2.8,0,0,1,.528.044l-2.626,6.637q-2.883,0-3.973.92a8.583,8.583,0,0,0-2.209,2.708,8.9,8.9,0,0,0-.676,3.494Z" transform="translate(-84.774 -4.315)" fill="#fff"/>
      <rect id="Rectangle_2" data-name="Rectangle 2" width="5.823" height="25.791" transform="translate(183.009 8.721)" fill="#fff"/>
      <path id="Path_6" data-name="Path 6" d="M297.958,39.007H291.93V13.226h5.458V16.9a9.447,9.447,0,0,1,4.026-2.928,8.2,8.2,0,0,1,3.661-.743,6.7,6.7,0,0,1,6.427,4.323,10.645,10.645,0,0,1,.877,4.375V39.007h-5.937V22.576a6.023,6.023,0,0,0-.139-.916,2.723,2.723,0,0,0-1.443-2.272,3.228,3.228,0,0,0-1.879-.431,4.64,4.64,0,0,0-3.474,1.85,5.756,5.756,0,0,0-1.547,3.781Z" transform="translate(-99.212 -4.494)" fill="#fff"/>
      <path id="Path_7" data-name="Path 7" d="M58.784,27.183s3.345-2.338,13.839,6.565c7.734,6.546,15.32-5.047,15.32-5.047S82.328,32.516,74.9,26c-6.762-5.933-16.111,1.184-16.111,1.184" transform="translate(-19.978 -8.033)" fill="#fff"/>
      <path id="Path_8" data-name="Path 8" d="M57.376,34.577s-7.394,3.585-25.4-17.468C18.723,1.6,0,21.887,0,21.887s12.311-5.463,24.986,9.871c11.525,13.96,32.39,2.818,32.39,2.818" transform="translate(0 -3.83)" fill="#fff"/>
      <rect id="Rectangle_3" data-name="Rectangle 3" width="5.827" height="5.827" transform="translate(183.01 0)" fill="#fff"/>
    </g>
  </g>
</svg>
