<svg xmlns="http://www.w3.org/2000/svg" width="19.905" height="19.905" viewBox="0 0 19.905 19.905">
  <path id="Path_231" data-name="Path 231" d="M22.772,17.388,21,15.611a2.845,2.845,0,0,0-3.989-.017,1.739,1.739,0,0,1-2.2.216,12.139,12.139,0,0,1-3.346-3.339,1.762,1.762,0,0,1,.229-2.213A2.845,2.845,0,0,0,11.66,6.28L9.882,4.5a2.839,2.839,0,0,0-4.008,0l-.511.512C2.7,7.681,2.9,13.287,8.444,18.83c3.345,3.346,6.711,4.746,9.441,4.746a6.059,6.059,0,0,0,4.377-1.665l.512-.512A2.838,2.838,0,0,0,22.772,17.388ZM21.63,20.257l-.512.512c-2.1,2.1-6.737,1.717-11.534-3.081S4.4,8.252,6.5,6.151l.508-.511a1.221,1.221,0,0,1,1.723,0l1.777,1.777a1.221,1.221,0,0,1,.017,1.7,3.378,3.378,0,0,0-.429,4.233,13.742,13.742,0,0,0,3.808,3.8,3.376,3.376,0,0,0,4.226-.418,1.222,1.222,0,0,1,1.711.011l1.777,1.777a1.22,1.22,0,0,1,.007,1.731Z" transform="translate(-3.698 -3.675)" fill="#fff"/>
</svg>
